<?xml version="1.0" encoding="UTF-8"?>
<svg version="1.1" xmlns="http://www.w3.org/2000/svg" width="512" height="512">
<path d="M0 0 C4.89872999 2.85759249 7.79346527 7.1303958 9.5625 12.4375 C9.5625 21.0175 9.5625 29.5975 9.5625 38.4375 C39.2625 38.4375 68.9625 38.4375 99.5625 38.4375 C99.5625 29.8575 99.5625 21.2775 99.5625 12.4375 C104.07147227 3.41955546 104.07147227 3.41955546 107.125 1.5 C107.70378906 1.11972656 108.28257812 0.73945312 108.87890625 0.34765625 C114.49811227 -2.69010477 121.89172797 -2.55816692 127.953125 -0.9140625 C132.95949234 1.32160536 135.97250522 4.64656545 138.5625 9.4375 C141.62118527 18.6135558 139.5625 28.76508791 139.5625 38.4375 C169.5925 38.4375 199.6225 38.4375 230.5625 38.4375 C230.5625 29.8575 230.5625 21.2775 230.5625 12.4375 C235.07147227 3.41955546 235.07147227 3.41955546 238.125 1.5 C238.70378906 1.11972656 239.28257812 0.73945312 239.87890625 0.34765625 C245.49811227 -2.69010477 252.89172797 -2.55816692 258.953125 -0.9140625 C263.95949234 1.32160536 266.97250522 4.64656545 269.5625 9.4375 C270.64167226 12.67501678 270.67675601 15.01501771 270.66015625 18.41796875 C270.65693359 19.58134766 270.65371094 20.74472656 270.65039062 21.94335938 C270.64201172 23.15830078 270.63363281 24.37324219 270.625 25.625 C270.62048828 26.85154297 270.61597656 28.07808594 270.61132812 29.34179688 C270.59953065 32.37374668 270.58306921 35.40559906 270.5625 38.4375 C271.62984375 38.41655273 272.6971875 38.39560547 273.796875 38.37402344 C277.83742322 38.30046085 281.87791528 38.25528764 285.91894531 38.21777344 C287.6527712 38.19791802 289.38653255 38.17082427 291.12011719 38.13574219 C305.88464636 37.84489978 319.75797625 39.08734246 333 46.25 C333.66410889 46.59764404 334.32821777 46.94528809 335.01245117 47.3034668 C340.33610202 50.16233179 345.09290575 53.35124686 349.5625 57.4375 C350.45453125 58.23800781 351.3465625 59.03851563 352.265625 59.86328125 C366.88941904 73.667983 376.27783544 92.68443845 376.95018005 112.95820618 C376.97070828 115.27324102 376.97542243 117.58845559 376.96655273 119.90356445 C376.97684761 121.81834343 376.97684761 121.81834343 376.98735046 123.77180481 C377.0050908 127.23021439 377.00415163 130.6883677 376.99840808 134.14680886 C376.99529187 137.0471033 377.00143459 139.94735021 377.00744683 142.84763783 C377.021424 149.69021453 377.01998455 156.53266615 377.00854492 163.37524414 C376.99703677 170.41404882 377.01119979 177.45247367 377.0379414 184.4912284 C377.06013149 190.56123148 377.06672934 196.63111558 377.06086498 202.70115632 C377.05750614 206.31524579 377.05984006 209.92909115 377.07711601 213.54314613 C377.09552516 217.56847733 377.08136434 221.59307146 377.06420898 225.6184082 C377.07387695 226.8035199 377.08354492 227.98863159 377.09350586 229.20965576 C377.0264615 236.72854532 376.26908754 242.68308552 370.74609375 248.27734375 C370.16988281 248.63957031 369.59367187 249.00179687 369 249.375 C368.13181641 249.94541016 368.13181641 249.94541016 367.24609375 250.52734375 C361.62688773 253.56510477 354.23327203 253.43316692 348.171875 251.7890625 C343.16550766 249.55339464 340.15249478 246.22843455 337.5625 241.4375 C336.58978996 238.51936987 336.43125496 236.63996439 336.41773987 233.6018219 C336.41084137 232.60534134 336.40394287 231.60886078 336.39683533 230.58218384 C336.39291527 228.94350845 336.39291527 228.94350845 336.38891602 227.27172852 C336.382229 226.12013748 336.37554199 224.96854645 336.36865234 223.78205872 C336.35458491 221.27591072 336.34269628 218.76974979 336.33270454 216.26358223 C336.31629896 212.29042189 336.2932656 208.31733267 336.26780701 204.34422302 C336.19670663 193.04536954 336.1370594 181.74646954 336.08569336 170.44750977 C336.05725185 164.20778884 336.02178999 157.96814518 335.97903961 151.72850555 C335.95680033 148.43168742 335.93938058 145.13495374 335.92859077 141.83807564 C335.91634639 138.14788213 335.89215584 134.45793582 335.86547852 130.76782227 C335.8645948 129.156474 335.8645948 129.156474 335.86369324 127.51257324 C335.72858873 113.30664963 333.52021014 100.95380459 323.58203125 90.2578125 C311.89757015 79.72597716 297.97902254 79.37494938 283.0625 78.875 C281.25652344 78.81022461 281.25652344 78.81022461 279.4140625 78.74414062 C276.46363807 78.63876832 273.51313929 78.53664097 270.5625 78.4375 C270.58344727 79.18322266 270.60439453 79.92894531 270.62597656 80.69726562 C270.70966634 84.11053725 270.76132794 87.52359224 270.8125 90.9375 C270.84601563 92.11054687 270.87953125 93.28359375 270.9140625 94.4921875 C270.99115968 101.35383696 270.73856346 106.79252513 266.5625 112.4375 C264.74609375 114.27734375 264.74609375 114.27734375 263 115.375 C262.42121094 115.75527344 261.84242188 116.13554688 261.24609375 116.52734375 C255.62688773 119.56510477 248.23327203 119.43316692 242.171875 117.7890625 C237.16550766 115.55339464 234.15249478 112.22843455 231.5625 107.4375 C228.50381473 98.2614442 230.5625 88.10991209 230.5625 78.4375 C200.5325 78.4375 170.5025 78.4375 139.5625 78.4375 C139.5625 87.0175 139.5625 95.5975 139.5625 104.4375 C135.05352773 113.45544454 135.05352773 113.45544454 132 115.375 C131.42121094 115.75527344 130.84242188 116.13554688 130.24609375 116.52734375 C124.62688773 119.56510477 117.23327203 119.43316692 111.171875 117.7890625 C106.16550766 115.55339464 103.15249478 112.22843455 100.5625 107.4375 C97.50381473 98.2614442 99.5625 88.10991209 99.5625 78.4375 C69.8625 78.4375 40.1625 78.4375 9.5625 78.4375 C9.5625 87.0175 9.5625 95.5975 9.5625 104.4375 C5.05352773 113.45544454 5.05352773 113.45544454 2 115.375 C1.42121094 115.75527344 0.84242188 116.13554688 0.24609375 116.52734375 C-5.37311227 119.56510477 -12.76672797 119.43316692 -18.828125 117.7890625 C-23.83449234 115.55339464 -26.84750522 112.22843455 -29.4375 107.4375 C-30.51667226 104.19998322 -30.55175601 101.85998229 -30.53515625 98.45703125 C-30.53032227 96.71196289 -30.53032227 96.71196289 -30.52539062 94.93164062 C-30.51282227 93.10922852 -30.51282227 93.10922852 -30.5 91.25 C-30.49548828 90.02345703 -30.49097656 88.79691406 -30.48632812 87.53320312 C-30.47453065 84.50125332 -30.45806921 81.46940094 -30.4375 78.4375 C-34.35465725 78.54928894 -38.27101228 78.679437 -42.1875 78.8125 C-43.27933594 78.8434375 -44.37117188 78.874375 -45.49609375 78.90625 C-60.01646176 79.42176602 -72.62298409 81.20270688 -83.6171875 91.41796875 C-93.99711711 102.93389923 -94.59049641 116.43883247 -94.57121277 131.16351318 C-94.5746111 133.0721686 -94.5746111 133.0721686 -94.57807809 135.01938272 C-94.58417192 138.53543814 -94.58406536 142.0514697 -94.58288372 145.5675292 C-94.5826791 149.36588498 -94.58820431 153.16423321 -94.59294128 156.96258545 C-94.60123517 164.39845485 -94.60399556 171.83431633 -94.60455366 179.27018997 C-94.60502943 185.31680839 -94.60708721 191.36342421 -94.61025429 197.41004181 C-94.61905748 214.56729885 -94.6236742 231.72454965 -94.62292381 248.88180897 C-94.62286388 250.26820904 -94.62286388 250.26820904 -94.62280273 251.68261719 C-94.62274141 253.07071729 -94.62274141 253.07071729 -94.62267885 254.48685983 C-94.6222725 269.48059662 -94.63184033 284.47430829 -94.6459411 299.46803781 C-94.66031779 314.87719991 -94.66721057 330.28634976 -94.66634732 345.69551873 C-94.6660158 354.34106778 -94.66874343 362.98659049 -94.67952538 371.63213348 C-94.68864739 378.99362198 -94.69079168 386.3550722 -94.68401595 393.71656391 C-94.68075931 397.46892668 -94.68066299 401.22121607 -94.6893692 404.97357178 C-94.6987303 409.05028699 -94.69243588 413.12683356 -94.68473816 417.20355225 C-94.68988172 418.37711706 -94.69502529 419.55068187 -94.70032471 420.75980926 C-94.64028135 435.19721066 -92.57207075 447.73084869 -82.45703125 458.6171875 C-70.20318947 469.66223638 -55.61390933 469.58564286 -40.06054688 469.5793457 C-38.50586346 469.58238145 -36.95118094 469.58590405 -35.39649963 469.58987427 C-32.06100874 469.59773004 -28.72552838 469.60289551 -25.39002991 469.60616493 C-20.11118335 469.61210163 -14.83240325 469.6286656 -9.55358887 469.64750671 C-7.74268345 469.65384303 -5.93177799 469.66016866 -4.1208725 469.66648388 C-3.21435534 469.66964969 -2.30783819 469.6728155 -1.37385082 469.67607725 C10.90619081 469.7180828 23.18619981 469.75114256 35.46630859 469.76342773 C43.76392729 469.77181375 52.06137947 469.79431871 60.35891485 469.8327834 C64.74435371 469.85251463 69.12954383 469.86495812 73.51502991 469.85994911 C77.63892769 469.85529546 81.76235343 469.86914679 85.88615608 469.89696121 C87.39536553 469.90385914 88.90462393 469.90401462 90.41383171 469.89676094 C106.89108129 469.82558981 106.89108129 469.82558981 113.40234375 476.25390625 C113.76457031 476.83011719 114.12679687 477.40632813 114.5 478 C115.07041016 478.86818359 115.07041016 478.86818359 115.65234375 479.75390625 C118.69010477 485.37311227 118.55816692 492.76672797 116.9140625 498.828125 C114.67839464 503.83449234 111.35343455 506.84750522 106.5625 509.4375 C103.11842153 510.58552616 100.45191344 510.57212017 96.81758118 510.58467102 C95.78323866 510.59018605 95.78323866 510.59018605 94.72800034 510.5958125 C92.41151421 510.60684715 90.09507294 510.61069296 87.77856445 510.61450195 C86.11937315 510.62076729 84.46018324 510.62741415 82.80099487 510.63441467 C77.34260028 510.65546731 71.88420541 510.66582525 66.42578125 510.67578125 C64.54310784 510.6798298 62.66043457 510.68394675 60.77776146 510.68813133 C51.92294723 510.70719376 43.06814135 510.72141678 34.21331054 510.7297433 C24.0188608 510.73948896 13.82462974 510.76573388 3.63025695 510.80624419 C-4.26298372 510.83652364 -12.15616219 510.85122375 -20.04945976 510.85452431 C-24.75607587 510.85686338 -29.4624587 510.86567195 -34.16901207 510.89098549 C-38.60879052 510.91447579 -43.04818564 510.91841642 -47.48801041 510.90822411 C-49.10515057 510.90773351 -50.72231095 510.9139108 -52.33939171 510.92778015 C-66.13166942 511.03931324 -79.53264975 509.30102095 -91.875 502.625 C-92.53910889 502.27735596 -93.20321777 501.92971191 -93.88745117 501.5715332 C-99.21110202 498.71266821 -103.96790575 495.52375314 -108.4375 491.4375 C-109.32953125 490.63699219 -110.2215625 489.83648437 -111.140625 489.01171875 C-125.85985581 475.11692573 -135.19935364 456.02808615 -135.81781673 435.6351347 C-135.83538505 433.16548371 -135.83697346 430.69568324 -135.82518005 428.22599792 C-135.82936354 426.840244 -135.83484657 425.45449351 -135.84149987 424.06874925 C-135.85584049 420.29801215 -135.85174582 416.52749572 -135.84433305 412.75674713 C-135.83957517 408.67549316 -135.8521343 404.59428517 -135.86235046 400.51304626 C-135.87949315 392.53172923 -135.88038786 384.55049108 -135.87513756 376.56916042 C-135.87108591 370.07741815 -135.87255121 363.58569908 -135.87788582 357.0939579 C-135.87863424 356.16781746 -135.87938266 355.24167702 -135.88015376 354.28747172 C-135.88168534 352.40563135 -135.88322369 350.523791 -135.88476873 348.64195064 C-135.89847756 331.01828916 -135.89306763 313.39467214 -135.88158352 295.77101169 C-135.87165442 279.67448556 -135.88458911 263.57807443 -135.90851771 247.48156603 C-135.93294465 230.92412358 -135.94250766 214.3667346 -135.93586498 197.80927449 C-135.93238054 188.52536983 -135.93455338 179.24155355 -135.95211601 169.95766258 C-135.9668831 162.05399079 -135.9674149 154.15046961 -135.9500451 146.24680062 C-135.94156937 142.220429 -135.93930078 138.19432592 -135.95469666 134.16796875 C-136.08445776 97.63949414 -136.08445776 97.63949414 -127.625 82 C-127.27735596 81.33589111 -126.92971191 80.67178223 -126.5715332 79.98754883 C-123.71266821 74.66389798 -120.52375314 69.90709425 -116.4375 65.4375 C-115.23673828 64.09945312 -115.23673828 64.09945312 -114.01171875 62.734375 C-100.85370389 48.79563856 -82.35858068 38.91217115 -62.91943359 38.19848633 C-57.98668017 38.10845103 -53.05749393 38.17413016 -48.125 38.25 C-46.40170451 38.26508674 -44.67839613 38.27876803 -42.95507812 38.29101562 C-38.78222655 38.32367627 -34.61001048 38.37523326 -30.4375 38.4375 C-30.4689209 37.31891602 -30.4689209 37.31891602 -30.50097656 36.17773438 C-30.58466634 32.76446275 -30.63632794 29.35140776 -30.6875 25.9375 C-30.72101563 24.76445312 -30.75453125 23.59140625 -30.7890625 22.3828125 C-30.86615968 15.52116304 -30.61356346 10.08247487 -26.4375 4.4375 C-24.62109375 2.59765625 -24.62109375 2.59765625 -22.875 1.5 C-22.29621094 1.11972656 -21.71742187 0.73945312 -21.12109375 0.34765625 C-14.98998289 -2.96684219 -6.30251123 -2.81448021 0 0 Z " fill="#000000" transform="translate(135.4375,1.5625)"/>
<path d="M0 0 C1.813693 1.55805378 3.60429973 3.14325346 5.375 4.75 C5.88772461 5.2135791 6.40044922 5.6771582 6.92871094 6.15478516 C24.24302636 22.01844172 36.11377256 42.14791761 42.375 64.75 C42.6946875 65.88566406 43.014375 67.02132812 43.34375 68.19140625 C50.64190928 99.51267316 44.66039532 133.46868217 27.79321289 160.65698242 C24.08299362 166.39540232 19.96879957 171.68744538 15.375 176.75 C14.9114209 177.26272461 14.4478418 177.77544922 13.97021484 178.30371094 C-1.89344172 195.61802636 -22.02291761 207.48877256 -44.625 213.75 C-45.76066406 214.0696875 -46.89632812 214.389375 -48.06640625 214.71875 C-79.38767316 222.01690928 -113.34368217 216.03539532 -140.53198242 199.16821289 C-146.27040232 195.45799362 -151.56244538 191.34379957 -156.625 186.75 C-157.13772461 186.2864209 -157.65044922 185.8228418 -158.17871094 185.34521484 C-175.49302636 169.48155828 -187.36377256 149.35208239 -193.625 126.75 C-193.9446875 125.61433594 -194.264375 124.47867188 -194.59375 123.30859375 C-201.89190928 91.98732684 -195.91039532 58.03131783 -179.04321289 30.84301758 C-175.33299362 25.10459768 -171.21879957 19.81255462 -166.625 14.75 C-166.1614209 14.23727539 -165.6978418 13.72455078 -165.22021484 13.19628906 C-149.35655828 -4.11802636 -129.22708239 -15.98877256 -106.625 -22.25 C-105.48933594 -22.5696875 -104.35367188 -22.889375 -103.18359375 -23.21875 C-67.34034366 -31.57057526 -28.74997535 -22.62767844 0 0 Z M-102.625 19.75 C-103.64207031 20.08902344 -104.65914062 20.42804688 -105.70703125 20.77734375 C-124.31628815 27.63081844 -140.18249583 43.00299635 -148.61572266 60.84619141 C-157.03953151 80.51994921 -159.0652795 102.39359174 -151.625 122.75 C-151.28597656 123.76707031 -150.94695312 124.78414063 -150.59765625 125.83203125 C-143.74418156 144.44128815 -128.37200365 160.30749583 -110.52880859 168.74072266 C-90.85505079 177.16453151 -68.98140826 179.1902795 -48.625 171.75 C-47.60792969 171.41097656 -46.59085937 171.07195312 -45.54296875 170.72265625 C-26.93371185 163.86918156 -11.06750417 148.49700365 -2.63427734 130.65380859 C5.78953151 110.98005079 7.8152795 89.10640826 0.375 68.75 C-0.13353516 67.22439453 -0.13353516 67.22439453 -0.65234375 65.66796875 C-7.50581844 47.05871185 -22.87799635 31.19250417 -40.72119141 22.75927734 C-60.39494921 14.33546849 -82.26859174 12.3097205 -102.625 19.75 Z " fill="#000000" transform="translate(466.625,295.25)"/>
<path d="M0 0 C4.89872999 2.85759249 7.79346527 7.1303958 9.5625 12.4375 C9.64565752 14.50248892 9.66985878 16.5700789 9.66015625 18.63671875 C9.65693359 19.84521484 9.65371094 21.05371094 9.65039062 22.29882812 C9.63782227 24.1927832 9.63782227 24.1927832 9.625 26.125 C9.62048828 27.39923828 9.61597656 28.67347656 9.61132812 29.98632812 C9.59952873 33.13676564 9.58306597 36.28710949 9.5625 39.4375 C10.5525 39.39109375 11.5425 39.3446875 12.5625 39.296875 C27.11703398 38.81221528 27.11703398 38.81221528 32.5625 43.4375 C37.88602082 49.33762383 38.9308535 54.50033023 38.8359375 62.359375 C38.36955002 67.60956546 36.76707956 71.43333677 32.84375 75 C27.25060116 79.17116185 22.4713235 79.61634644 15.58203125 79.67578125 C14.25180183 79.68788887 14.25180183 79.68788887 12.8946991 79.70024109 C11.01600086 79.71407181 9.1372776 79.72479849 7.25854492 79.73266602 C4.40298951 79.74983175 1.54860644 79.79372078 -1.30664062 79.83789062 C-3.13540819 79.84802233 -4.96418556 79.85653694 -6.79296875 79.86328125 C-7.63909225 79.88078934 -8.48521576 79.89829742 -9.35697937 79.91633606 C-15.93990142 79.89257631 -21.49375111 78.34374891 -26.27734375 73.62109375 C-26.63957031 73.04488281 -27.00179688 72.46867187 -27.375 71.875 C-27.75527344 71.29621094 -28.13554687 70.71742188 -28.52734375 70.12109375 C-30.31725569 66.81014076 -30.57463899 64.04660938 -30.61450195 60.35864258 C-30.62733719 59.32359085 -30.64017242 58.28853912 -30.65339661 57.22212219 C-30.66078354 56.10339218 -30.66817047 54.98466217 -30.67578125 53.83203125 C-30.683853 52.6788591 -30.69192474 51.52568695 -30.70024109 50.33757019 C-30.71408069 47.89392601 -30.72480339 45.45026251 -30.73266602 43.0065918 C-30.74985228 39.28201279 -30.7937382 35.55832745 -30.83789062 31.83398438 C-30.84802004 29.45833985 -30.85653537 27.08268779 -30.86328125 24.70703125 C-30.88078934 23.59842239 -30.89829742 22.48981354 -30.91633606 21.34761047 C-30.89572378 13.94404108 -30.0553212 8.10200276 -24.62109375 2.59765625 C-24.04488281 2.23542969 -23.46867187 1.87320312 -22.875 1.5 C-22.00681641 0.92958984 -22.00681641 0.92958984 -21.12109375 0.34765625 C-14.98998289 -2.96684219 -6.30251123 -2.81448021 0 0 Z " fill="#000000" transform="translate(401.4375,331.5625)"/>
<path d="M0 0 C4.89872999 2.85759249 7.79346527 7.1303958 9.5625 12.4375 C10.22384489 19.75566066 10.30340673 26.48380318 5.5625 32.4375 C-0.31091297 37.77696633 -5.52093201 38.80560469 -13.359375 38.7109375 C-18.60956546 38.24455002 -22.43333677 36.64207956 -26 32.71875 C-30.78040344 26.30866357 -31.13555921 20.29565224 -30.4375 12.4375 C-28.90478311 6.78676061 -25.94904415 3.51969493 -21.12109375 0.34765625 C-14.98998289 -2.96684219 -6.30251123 -2.81448021 0 0 Z " fill="#000000" transform="translate(222.4375,365.5625)"/>
<path d="M0 0 C4.89872999 2.85759249 7.79346527 7.1303958 9.5625 12.4375 C10.22384489 19.75566066 10.30340673 26.48380318 5.5625 32.4375 C-0.31091297 37.77696633 -5.52093201 38.80560469 -13.359375 38.7109375 C-18.60956546 38.24455002 -22.43333677 36.64207956 -26 32.71875 C-30.78040344 26.30866357 -31.13555921 20.29565224 -30.4375 12.4375 C-28.90478311 6.78676061 -25.94904415 3.51969493 -21.12109375 0.34765625 C-14.98998289 -2.96684219 -6.30251123 -2.81448021 0 0 Z " fill="#000000" transform="translate(135.4375,365.5625)"/>
<path d="M0 0 C4.89872999 2.85759249 7.79346527 7.1303958 9.5625 12.4375 C10.22384489 19.75566066 10.30340673 26.48380318 5.5625 32.4375 C-0.31091297 37.77696633 -5.52093201 38.80560469 -13.359375 38.7109375 C-18.60956546 38.24455002 -22.43333677 36.64207956 -26 32.71875 C-30.78040344 26.30866357 -31.13555921 20.29565224 -30.4375 12.4375 C-28.90478311 6.78676061 -25.94904415 3.51969493 -21.12109375 0.34765625 C-14.98998289 -2.96684219 -6.30251123 -2.81448021 0 0 Z " fill="#000000" transform="translate(222.4375,278.5625)"/>
<path d="M0 0 C4.89872999 2.85759249 7.79346527 7.1303958 9.5625 12.4375 C10.22384489 19.75566066 10.30340673 26.48380318 5.5625 32.4375 C-0.31091297 37.77696633 -5.52093201 38.80560469 -13.359375 38.7109375 C-18.60956546 38.24455002 -22.43333677 36.64207956 -26 32.71875 C-30.78040344 26.30866357 -31.13555921 20.29565224 -30.4375 12.4375 C-28.90478311 6.78676061 -25.94904415 3.51969493 -21.12109375 0.34765625 C-14.98998289 -2.96684219 -6.30251123 -2.81448021 0 0 Z " fill="#000000" transform="translate(135.4375,278.5625)"/>
<path d="M0 0 C4.89872999 2.85759249 7.79346527 7.1303958 9.5625 12.4375 C10.22384489 19.75566066 10.30340673 26.48380318 5.5625 32.4375 C-0.31091297 37.77696633 -5.52093201 38.80560469 -13.359375 38.7109375 C-18.60956546 38.24455002 -22.43333677 36.64207956 -26 32.71875 C-30.78040344 26.30866357 -31.13555921 20.29565224 -30.4375 12.4375 C-28.90478311 6.78676061 -25.94904415 3.51969493 -21.12109375 0.34765625 C-14.98998289 -2.96684219 -6.30251123 -2.81448021 0 0 Z " fill="#000000" transform="translate(396.4375,191.5625)"/>
<path d="M0 0 C4.89872999 2.85759249 7.79346527 7.1303958 9.5625 12.4375 C10.22384489 19.75566066 10.30340673 26.48380318 5.5625 32.4375 C-0.31091297 37.77696633 -5.52093201 38.80560469 -13.359375 38.7109375 C-18.60956546 38.24455002 -22.43333677 36.64207956 -26 32.71875 C-30.78040344 26.30866357 -31.13555921 20.29565224 -30.4375 12.4375 C-28.90478311 6.78676061 -25.94904415 3.51969493 -21.12109375 0.34765625 C-14.98998289 -2.96684219 -6.30251123 -2.81448021 0 0 Z " fill="#000000" transform="translate(309.4375,191.5625)"/>
<path d="M0 0 C4.89872999 2.85759249 7.79346527 7.1303958 9.5625 12.4375 C10.22384489 19.75566066 10.30340673 26.48380318 5.5625 32.4375 C-0.31091297 37.77696633 -5.52093201 38.80560469 -13.359375 38.7109375 C-18.60956546 38.24455002 -22.43333677 36.64207956 -26 32.71875 C-30.78040344 26.30866357 -31.13555921 20.29565224 -30.4375 12.4375 C-28.90478311 6.78676061 -25.94904415 3.51969493 -21.12109375 0.34765625 C-14.98998289 -2.96684219 -6.30251123 -2.81448021 0 0 Z " fill="#000000" transform="translate(222.4375,191.5625)"/>
<path d="M0 0 C4.89872999 2.85759249 7.79346527 7.1303958 9.5625 12.4375 C10.22384489 19.75566066 10.30340673 26.48380318 5.5625 32.4375 C-0.31091297 37.77696633 -5.52093201 38.80560469 -13.359375 38.7109375 C-18.60956546 38.24455002 -22.43333677 36.64207956 -26 32.71875 C-30.78040344 26.30866357 -31.13555921 20.29565224 -30.4375 12.4375 C-28.90478311 6.78676061 -25.94904415 3.51969493 -21.12109375 0.34765625 C-14.98998289 -2.96684219 -6.30251123 -2.81448021 0 0 Z " fill="#000000" transform="translate(135.4375,191.5625)"/>
</svg>
