<?xml version="1.0" encoding="UTF-8"?>
<svg version="1.1" xmlns="http://www.w3.org/2000/svg" width="512" height="512">
<path d="M0 0 C59.40512043 -1.85750524 115.34981057 19.47864341 158.67382812 59.87402344 C167.2355674 68.01121366 174.93960167 76.43505695 181.75244141 86.08251953 C182.14705566 86.6274707 182.54166992 87.17242187 182.94824219 87.73388672 C208.25165798 122.83512696 223.88755245 168.59583546 219.12744141 212.20751953 C215.78744223 231.8959357 205.16113509 249.87534708 189.06494141 261.83251953 C169.1348856 274.78070865 146.49476321 280.81372223 122.83813477 275.90405273 C115.4150847 274.1450961 108.47697043 271.70994686 101.75244141 268.08251953 C100.49560547 267.42123047 100.49560547 267.42123047 99.21337891 266.74658203 C82.12843242 257.17266465 69.13263059 241.29659528 63.31640625 222.64550781 C61.48405946 216.07406697 61.00220416 209.45407102 60.48071289 202.67529297 C59.35536064 188.8767235 54.98180187 176.29368334 44.65869141 166.67236328 C31.69950099 155.86418603 17.44584464 152.01990043 0.75244141 153.08251953 C-11.47307501 154.73461634 -23.99654482 160.77741149 -32.24755859 170.08251953 C-44.3634627 186.03761959 -45.50774981 202.53913334 -42.88378906 221.74511719 C-38.85304604 248.17614244 -30.02194323 273.25615073 -14.24755859 295.08251953 C-13.86680176 295.61280762 -13.48604492 296.1430957 -13.09375 296.68945312 C7.47420085 325.01321803 36.26292168 346.69791449 69.67822266 357.32861328 C70.88744385 357.71452637 72.09666504 358.10043945 73.3425293 358.49804688 C75.73409519 359.247535 78.13297173 359.97418201 80.53930664 360.67480469 C87.27625372 362.7571427 92.17813526 364.74252076 95.75244141 371.08251953 C97.04223345 375.33124626 96.91899763 377.50447147 95.68994141 381.77001953 C93.38357745 385.71315792 91.91635183 387.18983298 87.75244141 389.08251953 C79.62113935 390.22536967 72.46912173 387.80577447 64.87744141 385.14501953 C63.69287354 384.73751465 62.50830566 384.33000977 61.2878418 383.91015625 C32.58241344 373.83991149 8.69276021 359.04635683 -13.24755859 338.08251953 C-14.12283203 337.24849609 -14.99810547 336.41447266 -15.89990234 335.55517578 C-38.80990013 313.20998534 -55.08820988 284.62431993 -64.24755859 254.08251953 C-64.78703125 252.30941406 -64.78703125 252.30941406 -65.33740234 250.50048828 C-72.83638242 223.47586197 -76.2334983 191.1702926 -62.42724609 165.82080078 C-51.91652665 147.39188101 -35.90273578 134.11528937 -15.32568359 128.22485352 C7.82182839 122.09365628 30.97461531 125.02447364 51.75244141 137.08251953 C54.90232262 139.2560357 57.83056545 141.61452722 60.75244141 144.08251953 C61.34412109 144.52982422 61.93580078 144.97712891 62.54541016 145.43798828 C75.99378626 155.93203004 84.98483854 173.81682667 87.06347656 190.59277344 C87.42678282 194.20816163 87.75035551 197.82114593 87.98193359 201.44750977 C88.96115538 215.30614461 94.44956518 227.57065108 104.75244141 237.08251953 C118.51332062 247.58028854 132.87708043 250.35737698 149.75244141 249.08251953 C163.22828344 246.65131092 175.31750325 239.345995 183.43994141 228.33251953 C195.1203821 210.9299753 192.88853823 189.7294405 189.34326172 169.99316406 C180.19527882 124.92611774 153.48570041 85.65094304 115.37744141 60.02001953 C113.4337237 58.7435697 111.48321081 57.47888308 109.52636719 56.22265625 C107.99908245 55.24104054 106.48213754 54.2433707 104.96728516 53.24267578 C66.42020976 29.11527218 14.00764043 21.45655969 -30.24755859 31.08251953 C-31.16359863 31.28119629 -32.07963867 31.47987305 -33.0234375 31.68457031 C-66.71503922 39.2579477 -96.73307183 54.81567875 -122.24755859 78.08251953 C-122.74562012 78.53530273 -123.24368164 78.98808594 -123.75683594 79.45458984 C-152.04371127 105.54433706 -172.34118994 144.51599537 -174.36129761 183.26417542 C-174.42758029 185.6166991 -174.46391924 187.96744522 -174.48583984 190.32080078 C-174.4956337 191.19094818 -174.50542755 192.06109558 -174.51551819 192.95761108 C-174.80514716 225.40074145 -171.71503623 256.51115054 -160.07617188 287.11401367 C-157.93101163 293.00275947 -156.88857615 299.10570084 -159.56005859 304.95751953 C-163.40755859 309.80251953 -163.40755859 309.80251953 -167.24755859 311.08251953 C-173.3684894 311.58423517 -176.36426809 311.17085577 -181.24755859 307.08251953 C-183.66305879 304.23805262 -184.9318502 301.64127084 -186.07958984 298.10205078 C-186.56069214 296.62236816 -186.56069214 296.62236816 -187.05151367 295.11279297 C-187.3843335 294.05092773 -187.71715332 292.9890625 -188.06005859 291.89501953 C-188.4089917 290.78803711 -188.7579248 289.68105469 -189.11743164 288.54052734 C-194.83477433 270.04316528 -199.18730256 251.34874862 -201.24755859 232.08251953 C-201.34182129 231.20394287 -201.43608398 230.32536621 -201.53320312 229.42016602 C-202.37984687 220.54555233 -202.48964311 211.67691635 -202.49755859 202.77001953 C-202.49906921 201.58356339 -202.49906921 201.58356339 -202.50061035 200.37313843 C-202.48922093 187.08720529 -201.72313224 174.16464579 -199.24755859 161.08251953 C-199.03873047 159.95523438 -199.03873047 159.95523438 -198.82568359 158.80517578 C-193.96553692 133.55941389 -183.32869683 109.84133255 -168.24755859 89.08251953 C-167.84569336 88.52516113 -167.44382813 87.96780273 -167.02978516 87.39355469 C-161.11343878 79.25798249 -154.58206167 71.78929457 -147.62890625 64.52685547 C-146.40247821 63.24450335 -145.18926372 61.94954292 -143.97802734 60.65283203 C-138.16937584 54.59631599 -131.72841046 49.47987408 -125.04296875 44.43798828 C-123.8921326 43.56914924 -122.74554629 42.69463484 -121.60449219 41.81298828 C-91.21341416 18.37083443 -53.17200717 5.10117438 -15.24755859 1.08251953 C-13.55759766 0.88722656 -13.55759766 0.88722656 -11.83349609 0.68798828 C-7.89035755 0.30590121 -3.95787705 0.14531419 0 0 Z " fill="#000000" transform="translate(247.24755859375,122.91748046875)"/>
<path d="M0 0 C24.77313767 23.12159516 42.08808913 54.92040982 43.69580078 89.24707031 C43.73983005 91.13872207 43.77014632 93.03075094 43.78564453 94.92285156 C43.7957959 95.80489258 43.80594727 96.68693359 43.81640625 97.59570312 C43.75046125 102.37160714 43.43436616 105.61067916 40.34814453 109.48535156 C36.65403879 112.63620646 33.2606362 113.00887455 28.56298828 112.83691406 C25.0513922 112.27951786 22.98422965 110.80761702 20.34814453 108.48535156 C17.82941265 104.90972659 16.92747565 102.21112435 16.57470703 97.87207031 C16.47520752 96.79691162 16.37570801 95.72175293 16.27319336 94.61401367 C16.17417725 93.47843018 16.07516113 92.34284668 15.97314453 91.17285156 C13.22034887 64.40269734 2.81388746 43.06427758 -15.65185547 23.48535156 C-16.27576172 22.79699219 -16.89966797 22.10863281 -17.54248047 21.39941406 C-34.63666255 3.22786757 -59.56011899 -6.32749839 -83.65185547 -10.51464844 C-84.38791016 -10.64613281 -85.12396484 -10.77761719 -85.88232422 -10.91308594 C-112.42688158 -14.71250034 -139.45623091 -8.32965686 -162.65185547 4.48535156 C-163.59931641 5.00226563 -164.54677734 5.51917969 -165.52294922 6.05175781 C-190.23509258 20.20052008 -207.8583825 43.73587032 -216.08935547 70.79785156 C-227.51307832 116.12760113 -214.86011897 167.29694718 -191.32714844 206.70361328 C-180.88696446 223.77818108 -168.82680069 239.21849878 -154.74560547 253.41894531 C-146.36445125 262.10114674 -146.36445125 262.10114674 -145.56201172 268.41894531 C-145.76051445 272.98450815 -147.76581811 276.19037389 -150.27685547 279.86035156 C-153.81181872 282.27901063 -157.40240451 282.84883493 -161.65185547 282.48535156 C-167.2708901 280.64430267 -170.54632082 278.03784128 -174.40185547 273.54785156 C-175.44585499 272.3718294 -176.49013192 271.19605346 -177.53466797 270.02050781 C-178.05448242 269.4277002 -178.57429688 268.83489258 -179.10986328 268.22412109 C-180.5538949 266.59581311 -182.02554713 265.00184419 -183.51904297 263.41894531 C-215.59102052 229.40064722 -237.36767885 185.6519606 -244.65185547 139.48535156 C-244.76223145 138.78748535 -244.87260742 138.08961914 -244.98632812 137.37060547 C-250.12507447 103.34158442 -248.20645296 69.56254121 -232.65185547 38.48535156 C-231.89388672 36.93074219 -231.89388672 36.93074219 -231.12060547 35.34472656 C-225.36841462 24.15991103 -217.25041202 14.58195058 -208.65185547 5.48535156 C-207.90548828 4.67453125 -207.15912109 3.86371094 -206.39013672 3.02832031 C-152.14022418 -53.91167053 -56.41187567 -51.72617154 0 0 Z " fill="#000000" transform="translate(357.65185546875,224.5146484375)"/>
<path d="M0 0 C0.62567871 0.32758301 1.25135742 0.65516602 1.89599609 0.99267578 C18.79155429 9.8533243 34.36848169 20.91270641 48.53173828 33.67871094 C49.88337188 34.89504633 51.25151096 36.09297381 52.62109375 37.2890625 C93.06786304 72.88221947 93.06786304 72.88221947 94.25 88.25 C93.9319665 93.02050249 92.53734709 96.14237227 89.5 99.8125 C86.79640678 101.95284463 84.01486453 102.20331187 80.6875 102.3125 C79.94886719 102.34988281 79.21023438 102.38726562 78.44921875 102.42578125 C72.3295887 101.36192212 68.84549722 96.90736902 65.375 92.125 C64.50568507 90.95733539 63.6331646 89.7920519 62.7578125 88.62890625 C62.30696289 88.02965332 61.85611328 87.43040039 61.39160156 86.81298828 C50.31437497 72.38149974 37.46774687 59.03704808 23 48 C22.45827148 47.58186035 21.91654297 47.1637207 21.35839844 46.73291016 C-19.57461668 15.26981581 -72.00558604 -4.93640819 -123.9765625 -5.203125 C-124.89661072 -5.21013931 -125.81665894 -5.21715363 -126.7645874 -5.22438049 C-129.71810865 -5.24178801 -132.67142934 -5.24823297 -135.625 -5.25 C-136.63443665 -5.25067474 -137.64387329 -5.25134949 -138.68389893 -5.25204468 C-153.6844405 -5.23610219 -168.22106373 -4.78290158 -183 -2 C-183.89525391 -1.8443457 -184.79050781 -1.68869141 -185.71289062 -1.52832031 C-225.08257791 5.42171962 -262.95707314 21.8906529 -294.31884766 46.67724609 C-295.77371844 47.82195854 -297.25025542 48.93903304 -298.73046875 50.05078125 C-313.6635056 61.60362681 -326.82720725 75.83278912 -338 91 C-339.467796 92.92538828 -340.94603834 94.84288509 -342.4375 96.75 C-343.33275391 97.91789062 -343.33275391 97.91789062 -344.24609375 99.109375 C-346.65196158 101.70278264 -348.66079307 102.79059674 -352.1484375 103.3359375 C-357.58888644 103.43138397 -360.80304082 102.79724878 -365 99 C-367.92984459 94.60523312 -368.85612808 91.22238131 -368 86 C-363.61157236 76.9769293 -356.56706643 69.4829481 -350 62 C-349.35804688 61.2575 -348.71609375 60.515 -348.0546875 59.75 C-346.38277946 57.82147351 -344.69308172 55.90994837 -343 54 C-342.29230469 53.18789062 -341.58460938 52.37578125 -340.85546875 51.5390625 C-336.80133631 46.93931428 -332.70091697 42.65141136 -328.01171875 38.69921875 C-325.89587842 36.91205264 -323.85821089 35.05435092 -321.8125 33.1875 C-251.21758825 -29.44285761 -148.77503313 -46.61338147 0 0 Z " fill="#000000" transform="translate(393,95)"/>
<path d="M0 0 C1.02423569 -0.00701431 2.04847137 -0.01402863 3.10374451 -0.02125549 C6.39082284 -0.03866209 9.67772102 -0.04510779 12.96484375 -0.046875 C14.08793945 -0.04754974 15.21103516 -0.04822449 16.36816406 -0.04891968 C32.76194112 -0.03325329 48.71555537 0.39428179 64.90234375 3.203125 C65.93472168 3.36941406 66.96709961 3.53570312 68.03076172 3.70703125 C97.59321116 8.51465742 125.54222422 17.96211504 152.71484375 30.390625 C153.80676025 30.88981445 154.89867676 31.38900391 156.02368164 31.90332031 C171.42952066 39.08594181 171.42952066 39.08594181 174.90234375 44.078125 C176.45389147 48.92671162 176.42487921 52.53754321 174.90234375 57.390625 C172.26272038 61.10259537 169.36383723 63.16139142 164.90234375 64.203125 C157.79558522 64.02622517 152.59231927 61.39973857 146.33984375 58.203125 C113.76966677 42.14939221 79.09604138 31.70837049 42.90234375 28.203125 C41.88140625 28.09226562 40.86046875 27.98140625 39.80859375 27.8671875 C-16.2572927 22.73244047 -72.94194223 34.78210988 -122.9765625 60.1484375 C-133.51260051 65.39814358 -133.51260051 65.39814358 -140.09765625 63.203125 C-143.30792322 61.3143102 -145.55338172 59.07869708 -147.53515625 55.890625 C-148.51338525 51.21686421 -147.88736539 47.19834933 -146.140625 42.78515625 C-143.03113953 38.8551947 -139.02874507 37.10557686 -134.59765625 34.890625 C-133.65204834 34.40988525 -132.70644043 33.92914551 -131.73217773 33.43383789 C-91.40994671 13.2002307 -45.26803769 0.20849621 0 0 Z " fill="#000000" transform="translate(242.09765625,-0.203125)"/>
<path d="M0 0 C5.0433412 2.42827539 6.92522145 4.88569994 9 10 C9.53322715 13.11193677 9.73102811 16.22668052 9.9375 19.375 C12.17826163 45.70935295 22.66344305 72.62492491 42.8125 90.5625 C44.20489693 91.71250675 45.60096161 92.85808218 47 94 C47.78761719 94.69738281 48.57523437 95.39476562 49.38671875 96.11328125 C73.58060922 117.05238825 103.77434469 122.69935539 135 121 C139.08552348 120.61090253 143.15859323 120.13592771 147.20532227 119.44848633 C152.54742932 118.64358214 155.367673 119.50785349 160 122 C162.82823245 124.52735665 164.67184945 126.39378943 165.4453125 130.1796875 C165.71656016 135.55039112 164.63157606 138.87767042 161 143 C144.58988516 154.30967374 111.77913106 149.71651296 93.22900391 146.52294922 C57.62797573 139.67928105 26.34408675 119.53448318 5.89453125 89.515625 C-8.07384615 68.38148297 -16.41782254 45.39018111 -18 20 C-18.05414063 19.19304687 -18.10828125 18.38609375 -18.1640625 17.5546875 C-18.3574946 12.36719031 -17.69636001 8.58381201 -15 4 C-10.40335272 -0.26831533 -6.02857173 -1.05878141 0 0 Z " fill="#000000" transform="translate(259,311)"/>
</svg>
