<?xml version="1.0" encoding="utf-8"?>
<!-- Generator: Adobe Illustrator 26.0.1, SVG Export Plug-In . SVG Version: 6.00 Build 0)  -->
<svg version="1.1" id="Layer_1" xmlns="http://www.w3.org/2000/svg" xmlns:xlink="http://www.w3.org/1999/xlink" x="0px" y="0px"
	 viewBox="0 0 160 129.9" style="enable-background:new 0 0 160 129.9;" xml:space="preserve">
<style type="text/css">
	.st0{fill:#E4EFFF;}
</style>
<path class="st0" d="M91.8,66.2c-2.7,1.6-7.9,2.3-13.9,2c-4.9-0.3-9.6-1.6-13.9-3.9c-2.4-1.2-4.5-2.8-6.4-4.7
	c-1.2-1.1-2.3-2.3-3.3-3.6c-3-4-5.1-8.5-6.1-13.4c-0.8-4.4-0.7-8.9,0.3-13.3c0.9-4,2.5-7.9,4.9-11.3c6.7-9.8,18.2-15,30-13.7
	c5.3,0.2,10.4,1.6,15,4.2c3.7,2.2,6.9,5.1,9.4,8.6L94.7,56.9h-6.2L75,16.8h13.3L88.1,18l-2.7,0.1L85,18.2l-0.2,0.4l-0.2,10.2
	l6.5,20.7l0.3,0.8l0.2,0.2l0.3-0.1l9.6-31.2c0-0.1,0.1-0.3,0-0.5c-1.8-3.2-9.4-7.5-15.6-8.4c-2.7-0.4-5.5-0.5-8.2-0.1
	c-4.1,0.5-8,1.9-11.5,4.2c-2.4,1.5-4.5,3.4-6.2,5.6c-0.9,1.2-1.7,2.4-2.4,3.7c-1.2,2.2-2,4.7-2.5,7.1c-0.4,2-0.5,4-0.5,6.1
	c0,2.8,0.5,5.6,1.4,8.2c0.4,1.1,0.9,2.2,1.5,3.2L66.8,20l1.2-3.3h6.3l10.3,31.6l2.7,8l0.1,0.4V57l-12.8-0.1l-0.3-0.1v-0.6v-0.5h2.6
	l0.4-0.1l0.2-0.2l0.2-0.4l0.2-9v-0.7l-0.3-0.8l-6.4-21l-0.3-0.3l-0.2,0.1l-0.2,0.5l-2.9,9.8l-6.1,19.6l-0.2,0.5v0.2
	c0,0.1,0,0.3,0.1,0.4v0.1c1.1,1.4,2.4,2.5,3.9,3.3c1.8,1.2,2.7,1.7,3,1.8c1.4,0.7,2.8,1.2,4.2,1.7c2.4,0.7,4.8,1.1,7.3,1.2
	c3.9,0.2,11.1-1,13.9-2.9c0.3-0.2,0.2,0.1-0.5,2C92.7,63.2,92,66,91.8,66.2z"/>
<path class="st0" d="M8.3,119l3.2,6.8h-0.8l-1.1-2.2H6.7l-1.1,2.2H4.9l3.2-6.8H8.3z M8.2,120.4L7,122.9h2.3L8.2,120.4z"/>
<path class="st0" d="M12.4,119h0.7v6.8h-0.7V119z"/>
<path class="st0" d="M16.5,124.5l0.6-0.3c0.4,0.7,0.9,1.1,1.4,1.1c0.2,0,0.4-0.1,0.6-0.2c0.2-0.1,0.4-0.2,0.5-0.4
	c0.1-0.2,0.2-0.4,0.2-0.6c0-0.2-0.1-0.5-0.2-0.7c-0.3-0.4-0.7-0.8-1.2-1.1c-0.4-0.3-0.7-0.6-1.1-0.9c-0.2-0.3-0.4-0.7-0.4-1.1
	c0-0.3,0.1-0.6,0.2-0.8c0.1-0.2,0.3-0.4,0.6-0.6c0.3-0.1,0.5-0.2,0.8-0.2c0.3,0,0.6,0.1,0.9,0.2c0.4,0.2,0.6,0.5,0.9,0.9l-0.6,0.4
	c-0.2-0.3-0.4-0.5-0.7-0.7c-0.2-0.1-0.4-0.2-0.6-0.2c-0.3,0-0.5,0.1-0.7,0.3c-0.2,0.2-0.3,0.4-0.3,0.6c0,0.1,0,0.3,0.1,0.4
	c0.1,0.2,0.2,0.3,0.3,0.5c0.1,0.1,0.4,0.3,0.9,0.7c0.5,0.3,0.9,0.7,1.2,1.2c0.2,0.3,0.3,0.7,0.3,1.1c0,0.5-0.2,0.9-0.6,1.3
	c-0.4,0.4-0.9,0.6-1.4,0.6c-0.4,0-0.8-0.1-1.1-0.3C17.1,125.3,16.7,125,16.5,124.5z"/>
<path class="st0" d="M28.3,120.2l-0.5,0.4c-0.3-0.4-0.6-0.7-1.1-0.9c-0.4-0.2-0.9-0.3-1.4-0.3c-0.5,0-1,0.1-1.5,0.4
	c-0.4,0.3-0.8,0.6-1.1,1.1c-0.3,0.5-0.4,1-0.4,1.5c0,0.8,0.3,1.6,0.8,2.1c0.6,0.6,1.3,0.8,2.1,0.8c0.9,0,1.8-0.4,2.4-1.1l0.5,0.4
	c-0.3,0.5-0.8,0.8-1.3,1.1c-0.5,0.2-1.1,0.4-1.7,0.3c-1.1,0.1-2.1-0.4-2.8-1.2c-0.6-0.7-0.9-1.5-0.9-2.4c0-0.9,0.4-1.9,1.1-2.5
	c0.7-0.7,1.6-1.1,2.6-1.1c0.6,0,1.2,0.1,1.7,0.4C27.5,119.5,27.9,119.8,28.3,120.2z"/>
<path class="st0" d="M29.6,119h0.7v2.8h3.5V119h0.7v6.8h-0.7v-3.3h-3.5v3.3h-0.7V119z"/>
<path class="st0" d="M36.1,119H40v0.7h-3.2v2.1H40v0.7h-3.2v2.7H40v0.7h-3.9V119z"/>
<path class="st0" d="M41.1,125.8V119h1.4c0.7,0,1.5,0.1,2.2,0.2c0.6,0.2,1.2,0.6,1.5,1.2c0.4,0.6,0.6,1.3,0.6,2
	c0,0.6-0.1,1.2-0.4,1.8c-0.3,0.5-0.7,0.9-1.1,1.1c-0.6,0.3-1.3,0.4-2,0.4L41.1,125.8z M41.8,125.1h0.8c0.7,0,1.3,0,1.9-0.2
	c0.5-0.2,0.9-0.5,1.2-0.9c0.3-0.5,0.4-1,0.4-1.6c0-0.6-0.2-1.2-0.5-1.7c-0.3-0.5-0.8-0.8-1.3-1c-0.7-0.2-1.4-0.2-2.1-0.2h-0.5
	L41.8,125.1z"/>
<path class="st0" d="M48.2,119h0.7v4.1c0,0.3,0,0.6,0,0.9c0,0.2,0.1,0.5,0.2,0.7c0.1,0.2,0.3,0.4,0.6,0.5c0.2,0.1,0.5,0.2,0.8,0.2
	c0.2,0,0.4,0,0.6-0.1c0.2-0.1,0.4-0.2,0.5-0.4c0.1-0.2,0.3-0.4,0.3-0.6c0.1-0.3,0.1-0.7,0.1-1.1V119h0.7v4.1c0,0.5,0,1-0.2,1.5
	c-0.1,0.4-0.4,0.7-0.7,1c-0.4,0.3-0.8,0.4-1.3,0.4c-0.5,0-1-0.1-1.4-0.4c-0.4-0.2-0.7-0.6-0.8-1.1c-0.1-0.5-0.1-0.9-0.1-1.4
	L48.2,119z"/>
<path class="st0" d="M54.3,119H55v6.1h2.6v0.7h-3.3V119z"/>
<path class="st0" d="M58.6,119h0.7v6.8h-0.7V119z"/>
<path class="st0" d="M60.8,125.8V119H61l4.5,5.2V119h0.7v6.8H66l-4.5-5.1v5.1L60.8,125.8z"/>
<path class="st0" d="M74.4,120.1l-0.5,0.5c-0.4-0.4-0.8-0.6-1.2-0.8c-0.4-0.2-0.9-0.3-1.3-0.3c-0.5,0-1.1,0.1-1.5,0.4
	c-0.4,0.3-0.8,0.6-1.1,1.1c-0.3,0.4-0.4,0.9-0.4,1.4c0,0.5,0.1,1,0.4,1.5c0.3,0.4,0.7,0.8,1.1,1.1c0.5,0.3,1,0.4,1.6,0.4
	c0.6,0,1.3-0.2,1.8-0.6c0.5-0.4,0.8-0.9,0.9-1.5h-2.1v-0.7h2.8c0,0.9-0.3,1.8-0.9,2.5c-0.7,0.6-1.6,1-2.5,0.9
	c-1.1,0-2.2-0.4-2.9-1.3c-0.6-0.6-0.9-1.4-0.8-2.3c0-0.6,0.2-1.2,0.5-1.8c0.3-0.5,0.8-1,1.3-1.3c0.6-0.3,1.2-0.5,1.9-0.5
	c0.6,0,1.1,0.1,1.6,0.3C73.5,119.4,73.9,119.7,74.4,120.1z"/>
<path class="st0" d="M78.7,119h3.4v0.7h-2.7v2.1h2.7v0.7h-2.7v3.3h-0.7V119z"/>
<path class="st0" d="M86.5,118.8c2,0,3.6,1.5,3.6,3.5c0,1-0.4,1.9-1,2.6c-0.7,0.7-1.6,1.1-2.5,1.1c-1,0-1.9-0.4-2.5-1.1
	c-0.7-0.6-1.1-1.6-1.1-2.5C82.9,120.4,84.5,118.8,86.5,118.8C86.5,118.8,86.5,118.8,86.5,118.8L86.5,118.8z M86.5,119.5
	c-0.5,0-1,0.1-1.4,0.4c-0.4,0.3-0.8,0.6-1.1,1.1c-0.3,0.5-0.4,1-0.4,1.5c0,1.6,1.2,2.9,2.8,2.9c0,0,0.1,0,0.1,0l0,0
	c0.5,0,1-0.1,1.5-0.4c0.4-0.3,0.8-0.6,1.1-1.1c0.2-0.5,0.4-1,0.4-1.5c0-0.5-0.1-1-0.4-1.5C88.5,120,87.5,119.5,86.5,119.5
	L86.5,119.5z"/>
<path class="st0" d="M91.5,119h1.3c0.5,0,1,0,1.5,0.1c0.4,0.1,0.7,0.3,1,0.6c0.3,0.3,0.4,0.7,0.4,1.1c0,0.3-0.1,0.7-0.3,1
	c-0.2,0.3-0.4,0.5-0.8,0.6c-0.4,0.2-0.9,0.2-1.3,0.2l2.4,3.2H95l-2.4-3.2h-0.4v3.2h-0.7L91.5,119z M92.2,119.6v2.3h1.2
	c0.3,0,0.7,0,1-0.1c0.2-0.1,0.4-0.2,0.5-0.4c0.2-0.4,0.2-0.9,0-1.2c-0.1-0.2-0.3-0.3-0.5-0.4c-0.3-0.1-0.7-0.1-1-0.1L92.2,119.6z"/>
<path class="st0" d="M99.8,119h0.7v2.8h3.5V119h0.7v6.8h-0.7v-3.3h-3.5v3.3h-0.7L99.8,119z"/>
<path class="st0" d="M109.5,118.8c1,0,1.9,0.4,2.6,1.1c1.4,1.4,1.4,3.6,0,5c-0.7,0.7-1.6,1.1-2.5,1.1c-1,0-1.9-0.4-2.6-1.1
	c-0.7-0.6-1.1-1.6-1.1-2.5C105.9,120.4,107.5,118.8,109.5,118.8C109.5,118.8,109.5,118.8,109.5,118.8L109.5,118.8z M109.5,119.5
	c-0.5,0-1,0.1-1.4,0.4c-0.4,0.3-0.8,0.6-1.1,1.1c-0.3,0.5-0.4,1-0.4,1.5c0,1.6,1.3,2.9,2.8,2.9c0,0,0,0,0,0l0,0c0.5,0,1-0.1,1.5-0.4
	c0.4-0.2,0.8-0.6,1.1-1.1c0.3-0.5,0.4-1,0.4-1.5C112.4,120.8,111.1,119.5,109.5,119.5C109.5,119.4,109.5,119.4,109.5,119.5
	L109.5,119.5z"/>
<path class="st0" d="M114.1,125.8l1-6.8h0.1l2.8,5.6l2.7-5.6h0.1l1,6.8h-0.7l-0.7-4.8l-2.4,4.8h-0.2l-2.4-4.9l-0.7,4.9L114.1,125.8z
	"/>
<path class="st0" d="M123.1,119h3.9v0.7h-3.2v2.1h3.2v0.7h-3.2v2.7h3.2v0.7h-3.9L123.1,119z"/>
<path class="st0" d="M137.1,120.2l-0.5,0.4c-0.3-0.4-0.6-0.7-1.1-0.9c-0.4-0.2-0.9-0.3-1.4-0.3c-0.5,0-1,0.1-1.5,0.4
	c-0.4,0.2-0.8,0.6-1.1,1.1c-0.3,0.5-0.4,1-0.4,1.5c0,0.8,0.3,1.6,0.8,2.1c0.6,0.6,1.3,0.9,2.1,0.8c0.9,0,1.8-0.4,2.4-1.1l0.5,0.4
	c-0.3,0.4-0.8,0.8-1.3,1c-0.5,0.2-1.1,0.4-1.7,0.3c-1.9,0.1-3.6-1.4-3.7-3.3c0-0.1,0-0.2,0-0.3c0-0.9,0.4-1.9,1.1-2.5
	c0.7-0.7,1.6-1.1,2.6-1.1c0.6,0,1.2,0.1,1.7,0.4C136.4,119.5,136.8,119.8,137.1,120.2z"/>
<path class="st0" d="M141.3,119l3.2,6.8h-0.7l-1.1-2.2h-2.9l-1.1,2.2h-0.8l3.2-6.8H141.3z M141.2,120.4l-1.2,2.5h2.3L141.2,120.4z"
	/>
<path class="st0" d="M145.5,119h1.4c0.5,0,1,0,1.5,0.1c0.8,0.2,1.4,0.9,1.4,1.7c0,0.3-0.1,0.7-0.3,1c-0.2,0.3-0.4,0.5-0.7,0.6
	c-0.4,0.2-0.9,0.2-1.3,0.2l2.4,3.2H149l-2.4-3.2h-0.4v3.2h-0.7V119z M146.2,119.6v2.3h1.2c0.3,0,0.7,0,1-0.1
	c0.2-0.1,0.4-0.2,0.5-0.4c0.3-0.4,0.3-0.9,0-1.2c-0.1-0.2-0.3-0.3-0.5-0.4c-0.3-0.1-0.7-0.1-1-0.1L146.2,119.6z"/>
<path class="st0" d="M151.2,119h3.9v0.7h-3.2v2.1h3.2v0.7h-3.2v2.7h3.2v0.7h-3.9L151.2,119z"/>
<path class="st0" d="M24.1,75.7l14.3,30.7h-3.3l-4.8-10.1H17l-4.7,10.1H8.8l14.5-30.7L24.1,75.7z M23.7,82.2l-5.3,11.1h10.5
	L23.7,82.2z"/>
<path class="st0" d="M43.3,75.7h6.1c2.3-0.1,4.6,0.1,6.9,0.4c1.7,0.4,3.3,1.3,4.4,2.7c1.2,1.4,1.8,3.2,1.7,5.1c0,1.5-0.4,3-1.2,4.4
	c-0.8,1.3-2,2.3-3.4,2.9c-1.9,0.7-4,1.1-6.1,1l11,14.2h-3.8l-11-14.2h-1.7v14.2h-3.1V75.7z M46.4,78.7v10.4h5.3
	c1.5,0.1,3.1-0.1,4.5-0.6c0.9-0.4,1.8-1,2.3-1.9c0.6-0.9,0.8-1.8,0.8-2.9c0-1-0.3-2-0.8-2.8c-0.5-0.8-1.3-1.4-2.2-1.8
	c-1.5-0.4-3-0.6-4.5-0.5H46.4z"/>
<path class="st0" d="M66,78.7v-3h16.8v3H76v27.7h-3.1V78.7H66z"/>
<path class="st0" d="M86.8,75.7h3.1v30.7h-3.1V75.7z"/>
<path class="st0" d="M94.5,75.7h3.3L108,99.4l10.3-23.7h3.3l-13.3,30.7h-0.7L94.5,75.7z"/>
<path class="st0" d="M126.4,75.7h3.1v30.7h-3.1V75.7z"/>
<path class="st0" d="M133.3,100.7l2.6-1.6c1.8,3.4,3.9,5.1,6.4,5.1c1,0,2-0.2,2.9-0.7c0.9-0.4,1.6-1.1,2.1-1.9
	c0.5-0.8,0.7-1.7,0.7-2.6c0-1.1-0.4-2.2-1.1-3c-1.5-1.9-3.3-3.6-5.3-4.9c-1.8-1.2-3.4-2.6-4.8-4.2c-1.1-1.3-1.6-3-1.6-4.7
	c0-1.3,0.3-2.5,1-3.6c0.6-1.1,1.6-2,2.7-2.6c2.5-1.3,5.4-1.3,7.9,0.1c1.6,1,2.9,2.4,4,3.9l-2.5,2c-0.8-1.2-1.8-2.2-3-3
	c-0.8-0.5-1.7-0.7-2.6-0.7c-1.1,0-2.2,0.4-3,1.1c-0.8,0.7-1.2,1.7-1.2,2.8c0,0.7,0.1,1.3,0.4,1.9c0.4,0.8,0.9,1.4,1.6,2
	c0.4,0.4,1.7,1.4,4,3.1c2.1,1.4,4,3.2,5.5,5.2c0.9,1.4,1.4,3,1.5,4.6c0,2.2-0.9,4.3-2.5,5.8c-1.6,1.6-3.9,2.5-6.2,2.5
	c-1.8,0-3.6-0.5-5.1-1.5C135.8,104.4,134.3,102.7,133.3,100.7z"/>
</svg>
