<?xml version="1.0" encoding="UTF-8"?>
<svg version="1.1" xmlns="http://www.w3.org/2000/svg" width="512" height="512">
<path d="M0 0 C11.28842857 9.61041892 19.9057793 23.08669566 22.3515625 37.90234375 C23.95349172 58.41706182 21.02281318 76.82742608 7.41992188 92.86889648 C-2.88378928 104.31118958 -17.69276286 112.87804946 -33.23925781 114.10717773 C-53.4598821 114.83144909 -70.75095513 111.45517734 -86.1484375 97.58984375 C-97.68281514 86.67787225 -105.32670171 71.37580381 -105.984375 55.44921875 C-106.15233202 44.59140071 -106.07734136 34.97991516 -101.6484375 24.90234375 C-101.10509766 23.59136719 -101.10509766 23.59136719 -100.55078125 22.25390625 C-92.83695149 5.25733219 -78.61527656 -5.32160524 -61.82421875 -12.265625 C-40.21877519 -18.98381402 -17.34376392 -13.73687496 0 0 Z M-66.0234375 29.21484375 C-66.93783515 30.41499067 -67.81391498 31.6453442 -68.6484375 32.90234375 C-69.0609375 33.52367187 -69.4734375 34.145 -69.8984375 34.78515625 C-73.7324734 41.78759681 -73.88673561 50.14851444 -72.6484375 57.90234375 C-69.57960146 67.80326001 -63.59236364 74.44725511 -54.5859375 79.33984375 C-46.73301931 82.47829375 -37.11380695 82.15707036 -29.2109375 79.33984375 C-20.82115845 75.35400187 -15.31036345 69.40492718 -11.6484375 60.90234375 C-8.97479319 52.76143961 -9.70178362 42.82348169 -13.33984375 35.14453125 C-18.58478552 26.1576758 -25.98407703 20.99150007 -36.0703125 18.2421875 C-47.36338546 16.50017093 -58.32458511 20.89698816 -66.0234375 29.21484375 Z " fill="#000000" transform="translate(457.6484375,206.09765625)"/>
<path d="M0 0 C11.28842857 9.61041892 19.9057793 23.08669566 22.3515625 37.90234375 C23.95349172 58.41706182 21.02281318 76.82742608 7.41992188 92.86889648 C-2.88378928 104.31118958 -17.69276286 112.87804946 -33.23925781 114.10717773 C-53.4598821 114.83144909 -70.75095513 111.45517734 -86.1484375 97.58984375 C-97.68281514 86.67787225 -105.32670171 71.37580381 -105.984375 55.44921875 C-106.15233202 44.59140071 -106.07734136 34.97991516 -101.6484375 24.90234375 C-101.10509766 23.59136719 -101.10509766 23.59136719 -100.55078125 22.25390625 C-92.83695149 5.25733219 -78.61527656 -5.32160524 -61.82421875 -12.265625 C-40.21877519 -18.98381402 -17.34376392 -13.73687496 0 0 Z M-66.0234375 29.21484375 C-66.93783515 30.41499067 -67.81391498 31.6453442 -68.6484375 32.90234375 C-69.0609375 33.52367187 -69.4734375 34.145 -69.8984375 34.78515625 C-73.7324734 41.78759681 -73.88673561 50.14851444 -72.6484375 57.90234375 C-69.57960146 67.80326001 -63.59236364 74.44725511 -54.5859375 79.33984375 C-46.73301931 82.47829375 -37.11380695 82.15707036 -29.2109375 79.33984375 C-20.82115845 75.35400187 -15.31036345 69.40492718 -11.6484375 60.90234375 C-8.97479319 52.76143961 -9.70178362 42.82348169 -13.33984375 35.14453125 C-18.58478552 26.1576758 -25.98407703 20.99150007 -36.0703125 18.2421875 C-47.36338546 16.50017093 -58.32458511 20.89698816 -66.0234375 29.21484375 Z " fill="#000000" transform="translate(297.6484375,206.09765625)"/>
<path d="M0 0 C11.28842857 9.61041892 19.9057793 23.08669566 22.3515625 37.90234375 C23.95349172 58.41706182 21.02281318 76.82742608 7.41992188 92.86889648 C-2.88378928 104.31118958 -17.69276286 112.87804946 -33.23925781 114.10717773 C-53.4598821 114.83144909 -70.75095513 111.45517734 -86.1484375 97.58984375 C-97.68281514 86.67787225 -105.32670171 71.37580381 -105.984375 55.44921875 C-106.15233202 44.59140071 -106.07734136 34.97991516 -101.6484375 24.90234375 C-101.10509766 23.59136719 -101.10509766 23.59136719 -100.55078125 22.25390625 C-92.83695149 5.25733219 -78.61527656 -5.32160524 -61.82421875 -12.265625 C-40.21877519 -18.98381402 -17.34376392 -13.73687496 0 0 Z M-66.0234375 29.21484375 C-66.93783515 30.41499067 -67.81391498 31.6453442 -68.6484375 32.90234375 C-69.0609375 33.52367187 -69.4734375 34.145 -69.8984375 34.78515625 C-73.7324734 41.78759681 -73.88673561 50.14851444 -72.6484375 57.90234375 C-69.57960146 67.80326001 -63.59236364 74.44725511 -54.5859375 79.33984375 C-46.73301931 82.47829375 -37.11380695 82.15707036 -29.2109375 79.33984375 C-20.82115845 75.35400187 -15.31036345 69.40492718 -11.6484375 60.90234375 C-8.97479319 52.76143961 -9.70178362 42.82348169 -13.33984375 35.14453125 C-18.58478552 26.1576758 -25.98407703 20.99150007 -36.0703125 18.2421875 C-47.36338546 16.50017093 -58.32458511 20.89698816 -66.0234375 29.21484375 Z " fill="#000000" transform="translate(137.6484375,206.09765625)"/>
</svg>
