<?xml version="1.0" encoding="UTF-8"?>
<svg version="1.1" xmlns="http://www.w3.org/2000/svg" width="512" height="512">
<path d="M0 0 C1.69792229 -0.00373968 3.39584287 -0.00834246 5.09376073 -0.01373065 C9.74579687 -0.02593673 14.39776096 -0.025703 19.04980946 -0.02334189 C24.07245295 -0.02293312 29.09507353 -0.03397859 34.1177063 -0.04345703 C43.95277076 -0.0600547 53.78781124 -0.06556601 63.62288854 -0.06668179 C71.6188478 -0.06763281 79.61479916 -0.07174582 87.61075592 -0.07808304 C110.29079468 -0.0956918 132.97081452 -0.10492244 155.65086016 -0.10342209 C157.48406738 -0.10330222 157.48406738 -0.10330222 159.35430908 -0.10317993 C161.18975969 -0.10305729 161.18975969 -0.10305729 163.0622901 -0.10293217 C182.89227139 -0.10211929 202.72217672 -0.12125835 222.55213603 -0.14945666 C242.92322269 -0.17819545 263.29427232 -0.19199642 283.66537976 -0.19026911 C295.09826952 -0.18960557 306.53107963 -0.19508216 317.96395111 -0.21662521 C327.69804595 -0.23485002 337.43202503 -0.23917359 347.16612956 -0.22560637 C352.1297868 -0.21908344 357.09322204 -0.21893524 362.05685806 -0.23631287 C366.60688799 -0.25207825 371.15652054 -0.24914465 375.70654097 -0.2317446 C377.34646727 -0.22868234 378.98642349 -0.23227772 380.62631449 -0.24346475 C396.91895317 -0.34718786 410.86024718 3.02344725 423.05157471 14.39242554 C436.18161695 28.26611619 437.82074212 43.45213543 437.7522583 61.60531616 C437.7563309 63.42996025 437.76167663 65.25460187 437.76818848 67.07923889 C437.78178597 72.00279302 437.77659487 76.92615712 437.76705122 81.84971428 C437.75941521 87.02106077 437.76651112 92.19239183 437.77120972 97.36373901 C437.77665584 106.04536842 437.76950574 114.72692108 437.75518799 123.40853882 C437.73886371 133.42197334 437.74415303 143.43522456 437.7606672 153.44865465 C437.77431473 162.07153397 437.7761858 170.69435836 437.7683512 179.31724501 C437.76369261 184.45613067 437.76299964 189.5949304 437.77296066 194.73381042 C437.78167573 199.56682152 437.77552607 204.39959804 437.75827789 209.232584 C437.75433718 210.99813766 437.75540527 212.76371133 437.76206589 214.52925682 C437.81759445 230.7537155 435.82946085 246.02670035 424.30548096 258.51351929 C410.98753586 270.54522422 397.80700669 273.87894896 380.20880127 273.77536011 C378.4910746 273.77997601 376.7733519 273.78633353 375.05563736 273.79426908 C370.3627534 273.81089091 365.67019687 273.80274871 360.97731209 273.79032421 C355.90564943 273.78124666 350.83404175 273.79525684 345.76239014 273.8062439 C335.83779934 273.82400487 325.91332974 273.82019991 315.98873425 273.80859333 C307.92084447 273.79954976 299.8529886 273.79833901 291.78509521 273.8026886 C290.63563549 273.80330153 289.48617577 273.80391446 288.30188394 273.80454597 C285.96657911 273.80582491 283.63127429 273.80712176 281.29596949 273.80843633 C259.41186066 273.81983504 237.52781892 273.80673954 215.6437211 273.78523487 C196.87729497 273.76736455 178.11096781 273.77046886 159.34454346 273.78890991 C137.53727973 273.81032914 115.73007475 273.81873647 93.92280197 273.80646086 C91.59621939 273.8051867 89.2696368 273.80392921 86.9430542 273.8026886 C85.22609199 273.80176295 85.22609199 273.80176295 83.47444367 273.80081859 C75.41880012 273.79736886 67.36319392 273.80318593 59.30755615 273.81260681 C49.48675653 273.82383984 39.66608475 273.82075926 29.84529972 273.79948384 C24.83719919 273.78899105 19.8293116 273.78482141 14.82121277 273.79808044 C10.23186612 273.81004682 5.64292872 273.80337208 1.05361891 273.78217024 C-0.60167174 273.77772212 -2.25699735 273.77992993 -3.9122653 273.78967339 C-20.01800797 273.87716455 -33.22782275 270.18197908 -45.38592529 259.07992554 C-57.59518673 245.99018851 -59.08656632 231.59677408 -59.03997803 214.60580444 C-59.04568764 212.72234188 -59.05265418 210.83888278 -59.06077576 208.95542908 C-59.07865757 203.86235247 -59.07754807 198.76944863 -59.07183337 193.67635012 C-59.06873409 189.414629 -59.07484223 185.1529407 -59.08087212 180.89122427 C-59.09489961 170.83202638 -59.09337104 160.77291345 -59.08197021 150.7137146 C-59.07049259 140.35832823 -59.08456284 130.00320096 -59.11136669 119.64784873 C-59.13356439 110.73626217 -59.14015184 101.8247567 -59.13429028 92.91314447 C-59.13092902 87.5998154 -59.13328032 82.28665236 -59.15054131 76.97334671 C-59.16607316 71.97451969 -59.16198591 66.97607476 -59.14323616 61.9772625 C-59.13956741 60.15043012 -59.14260831 58.32356904 -59.15312195 56.49676323 C-59.23863507 40.40037089 -56.60530515 27.12286198 -45.38201904 14.79086304 C-32.01286616 1.95819301 -17.74461208 -0.03706634 0 0 Z M-24.63592529 39.26742554 C-28.92008734 45.08164545 -28.7602605 51.58186212 -28.76963806 58.5851593 C-28.77190362 59.28786676 -28.77416917 59.99057421 -28.77650338 60.71457583 C-28.78279461 63.05113851 -28.78201719 65.38764247 -28.78118896 67.72421265 C-28.78418345 69.4068255 -28.78758665 71.08943767 -28.79136658 72.77204895 C-28.80017998 77.32988115 -28.80254353 81.88769457 -28.80318236 86.44553447 C-28.80389422 89.29547937 -28.80603108 92.14541952 -28.80867958 94.99536324 C-28.81792324 104.9443708 -28.82201557 114.89336499 -28.82122803 124.84237671 C-28.82062706 134.10650711 -28.83118517 143.37057932 -28.84697169 152.63469499 C-28.86005717 160.59837999 -28.86541152 168.56204598 -28.86477262 176.52574164 C-28.86451799 181.27779632 -28.86735016 186.02979924 -28.87795067 190.78184319 C-28.88764895 195.25111778 -28.88769897 199.72029126 -28.88043404 204.18956947 C-28.87939044 205.82618737 -28.88173767 207.46281162 -28.88779449 209.09941864 C-28.89554931 211.3406329 -28.8908469 213.58150095 -28.88316345 215.82270813 C-28.88370822 217.0746292 -28.88425299 218.32655027 -28.88481426 219.61640835 C-28.39341249 226.82490903 -26.72947862 232.98621498 -21.63592529 238.26742554 C-15.54997683 242.95986243 -9.19071293 243.3910843 -1.74109268 243.3988533 C-1.0685696 243.40090594 -0.39604652 243.40295857 0.29685605 243.4050734 C2.54858992 243.41072425 4.80026226 243.40928853 7.05200195 243.40786743 C8.68347502 243.41045216 10.31494744 243.41346562 11.946419 243.41687083 C16.42858318 243.4249313 20.91073133 243.42672987 25.3929019 243.4274683 C30.22739306 243.42932049 35.06187594 243.43686861 39.8963623 243.44360352 C50.46658813 243.45718006 61.03681017 243.46321035 71.60704327 243.46761417 C78.20737221 243.47037745 84.80769969 243.47461493 91.40802765 243.47911835 C109.68358646 243.49130957 127.95914409 243.50160954 146.23470688 243.50499344 C147.40415459 243.505213 148.5736023 243.50543257 149.77848782 243.50565879 C151.53684213 243.50598621 151.53684213 243.50598621 153.33071876 243.50632024 C155.70609522 243.5067637 158.08147168 243.50721027 160.45684814 243.50765991 C162.22424915 243.50799206 162.22424915 243.50799206 164.02735522 243.50833091 C183.1223549 243.5122795 202.21731643 243.52973606 221.31230137 243.55301943 C240.91825628 243.57673287 260.52419204 243.58919527 280.13016152 243.59036136 C291.13765558 243.59127806 302.14509991 243.59702934 313.15258026 243.61518097 C322.52486427 243.63058175 331.89708318 243.63570249 341.26937744 243.62744287 C346.05033614 243.62353646 350.83116375 243.62446562 355.61210632 243.63850021 C359.99180106 243.65123929 364.3712662 243.65004154 368.75096062 243.6379095 C370.33237757 243.63595254 371.91381079 243.63903092 373.4952049 243.64775386 C387.41061587 243.92695736 387.41061587 243.92695736 399.80157471 238.40023804 C400.31719971 237.73765991 400.83282471 237.07508179 401.36407471 236.39242554 C401.90032471 235.73500366 402.43657471 235.07758179 402.98907471 234.40023804 C406.10730388 229.56343937 406.61695247 225.57683859 406.63150024 219.848526 C406.63829691 218.74190014 406.63829691 218.74190014 406.64523089 217.6129182 C406.65787108 215.14572054 406.65625478 212.67874375 406.65460205 210.21151733 C406.66058757 208.44052853 406.66739317 206.66954234 406.67495728 204.89855957 C406.69262275 200.09060664 406.69731291 195.2827249 406.69858885 190.47474265 C406.70001077 187.469689 406.70428115 184.46465343 406.70958328 181.45960426 C406.7280858 170.9724373 406.73625367 160.48532117 406.73468018 149.99813843 C406.73347892 140.22842863 406.75457768 130.45893982 406.7861675 120.68928593 C406.81233566 112.2967623 406.82304723 103.90431081 406.82176936 95.5117467 C406.82125986 90.50138602 406.82693646 85.4912217 406.84812546 80.48090172 C406.86751672 75.76697166 406.86762622 71.05342509 406.85309219 66.33948135 C406.85100406 64.61255774 406.85570529 62.88561007 406.86781311 61.15872765 C407.23666371 47.97370394 407.23666371 47.97370394 400.95215416 36.76964855 C395.79537765 32.11434772 391.24359169 31.01776303 384.44056034 31.01294994 C383.75279736 31.00974347 383.06503437 31.00653699 382.35643008 31.00323334 C380.04680564 30.99491758 377.73743946 31.00086307 375.42781067 31.00672913 C373.75722566 31.00370916 372.08664204 30.99982046 370.41606086 30.99513656 C365.82128015 30.98482787 361.22657722 30.98704567 356.63179004 30.99131715 C351.67806136 30.99377916 346.72435166 30.98477678 341.77062988 30.97727966 C332.0643646 30.96451619 322.35812696 30.96274101 312.6518547 30.96507993 C304.76443562 30.96686133 296.87702494 30.96511726 288.98960686 30.96085548 C287.86799534 30.9602603 286.74638383 30.95966511 285.59078408 30.95905188 C283.31240114 30.95784016 281.0340182 30.95662603 278.75563525 30.9554095 C257.3786975 30.9445277 236.0017755 30.94669954 214.62483685 30.95279435 C195.05824593 30.9579646 175.49170478 30.94670634 155.9251237 30.92769613 C135.84461136 30.90833582 115.76412258 30.90005852 95.68360084 30.90381938 C84.40570974 30.90573411 73.127861 30.90321746 61.84997749 30.88910484 C52.24954633 30.87721311 42.64918361 30.87576133 33.04875154 30.88789501 C28.14880922 30.89379912 23.24899225 30.89484093 18.34905815 30.88289261 C13.86528839 30.87208596 9.38174942 30.87507463 4.8979907 30.88915429 C3.27422193 30.89181566 1.65043538 30.88938981 0.02668399 30.88141843 C-2.1780139 30.8713446 -4.38190453 30.87970598 -6.58656979 30.89269543 C-8.42452756 30.8926129 -8.42452756 30.8926129 -10.2996158 30.89252871 C-16.60977943 31.60159372 -20.52053209 34.59589811 -24.63592529 39.26742554 Z " fill="#000000" transform="translate(66.63592529296875,238.73257446289063)"/>
<path d="M0 0 C0.74080307 -0.00700928 1.48160614 -0.01401855 2.24485779 -0.02124023 C4.67339491 -0.03872609 7.10074963 -0.02723204 9.52929688 -0.01367188 C11.22888409 -0.01636952 12.9284698 -0.02025421 14.62805176 -0.02526855 C18.18203492 -0.03115083 21.73561468 -0.02264198 25.28955078 -0.00390625 C29.83241134 0.01888283 34.37432649 0.00575287 38.9171524 -0.01819611 C42.4243271 -0.03268869 45.93127971 -0.02803232 49.4384613 -0.01768494 C51.11291111 -0.01502719 52.78738144 -0.01825374 54.46180725 -0.02760315 C56.80710838 -0.0378264 59.15090402 -0.02218955 61.49609375 0 C62.52185768 -0.01214539 62.52185768 -0.01214539 63.56834412 -0.02453613 C68.90786092 0.06849187 71.91195418 1.63393451 76.24804688 4.51757812 C79.24339497 7.67057612 80.48768655 11.26837197 80.68554688 15.58007812 C80.0630068 21.18293884 78.4771789 24.64799801 74.24804688 28.33007812 C70.22502469 31.2635318 67.61407345 31.64199616 62.7668457 31.63110352 C61.64591019 31.63102798 60.52497467 31.63095245 59.37007141 31.63087463 C58.16062363 31.62571335 56.95117584 31.62055206 55.70507812 31.61523438 C54.46634445 31.61381943 53.22761078 31.61240448 51.95133972 31.61094666 C48.6617315 31.60629415 45.37217227 31.59731203 42.08258057 31.58624268 C38.72433064 31.57600442 35.36607354 31.57144386 32.0078125 31.56640625 C25.42120228 31.55536957 18.8346341 31.53810102 12.24804688 31.51757812 C12.24804688 38.77757812 12.24804688 46.03757812 12.24804688 53.51757812 C16.87320313 53.46537109 16.87320313 53.46537109 21.59179688 53.41210938 C24.5969958 53.38867498 27.60218433 53.3704805 30.60742188 53.3527832 C32.68689574 53.33774969 34.76633818 53.31731738 36.84570312 53.29125977 C39.84448021 53.25463677 42.84283599 53.23779702 45.84179688 53.22460938 C46.76295288 53.20912552 47.68410889 53.19364166 48.63317871 53.1776886 C54.77771655 53.17610698 61.01917839 53.58630979 65.80871582 57.93440247 C68.8193329 61.39621839 70.11398768 64.15017431 70.56054688 68.70507812 C70.07880301 74.58235331 68.31926254 78.70927023 63.84960938 82.61157227 C59.31319092 85.54420599 54.38678149 85.01405875 49.16210938 84.90820312 C48.1051889 84.90254333 47.04826843 84.89688354 45.95932007 84.89105225 C42.59676058 84.86873279 39.23528215 84.81854294 35.87304688 84.76757812 C33.58790606 84.74750747 31.30274847 84.7292577 29.01757812 84.71289062 C23.42698684 84.67229083 17.83872121 84.59398825 12.24804688 84.51757812 C12.24804688 97.38757813 12.24804688 110.25757813 12.24804688 123.51757812 C18.20738281 123.44796875 18.20738281 123.44796875 24.28710938 123.37695312 C28.13947268 123.34574859 31.99182186 123.32146574 35.84423828 123.29785156 C38.51968063 123.28000987 41.19426704 123.25046764 43.86962891 123.21582031 C47.71723259 123.16724307 51.56425474 123.14459447 55.41210938 123.12695312 C56.6060733 123.10630798 57.80003723 123.08566284 59.03018188 123.06439209 C65.4033705 123.06267399 69.4448221 123.14362951 74.24804688 127.51757812 C77.79385723 131.55246577 78.55164866 135.08419222 78.46289062 140.45898438 C77.98611713 145.0273413 76.02241802 147.81875539 72.68554688 150.83007812 C68.68325493 153.60089563 65.79399442 153.67643663 61.04785156 153.69458008 C59.93533272 153.70443687 59.93533272 153.70443687 58.80033875 153.7144928 C56.34019879 153.73423957 53.88011998 153.74589241 51.41992188 153.75585938 C50.1596455 153.76197267 50.1596455 153.76197267 48.873909 153.76820946 C44.42554469 153.7890777 39.97721128 153.80337522 35.52880859 153.81274414 C30.93761023 153.82380043 26.34689763 153.85818886 21.75587082 153.89791584 C18.2230541 153.92408582 14.69035294 153.93243638 11.15744781 153.93602562 C9.46539282 153.94089189 7.77334299 153.9525071 6.08138275 153.97106361 C3.70913977 153.99546036 1.33815082 153.99448943 -1.03417969 153.98754883 C-2.07711937 154.00676392 -2.07711937 154.00676392 -3.14112854 154.02636719 C-8.15800519 153.97303936 -11.01852878 152.85034581 -14.75195312 149.51757812 C-19.57007494 143.29935497 -19.32206483 136.4526043 -19.26953125 128.89453125 C-19.27654053 127.64800278 -19.2835498 126.4014743 -19.29077148 125.11717224 C-19.30530325 121.71811111 -19.30197825 118.32003119 -19.28925514 114.92102623 C-19.27907711 111.35200121 -19.28853408 107.78301605 -19.2947998 104.21398926 C-19.30206233 98.22217344 -19.29252539 92.23055529 -19.2734375 86.23876953 C-19.25167124 79.32672358 -19.25872361 72.4151497 -19.28074312 65.50311518 C-19.29893715 59.5520941 -19.301436 53.60121454 -19.29098845 47.65017462 C-19.28477538 44.10309463 -19.28385707 40.55623601 -19.2971344 37.00917053 C-19.31091129 33.05280428 -19.29177787 29.09696021 -19.26953125 25.140625 C-19.27762817 23.9757103 -19.2857251 22.81079559 -19.29406738 21.61058044 C-19.22751815 15.20976276 -18.93199912 9.63816497 -14.75195312 4.51757812 C-10.34212673 0.66350128 -5.75536997 -0.06814549 0 0 Z " fill="#000000" transform="translate(363.751953125,298.482421875)"/>
<path d="M0 0 C4.96824977 4.36236565 6.52994704 8.58328302 8.3828125 14.7734375 C8.64305206 15.61984299 8.90329163 16.46624847 9.17141724 17.33830261 C10.0178272 20.09824286 10.85270656 22.86152633 11.6875 25.625 C12.26722918 27.52226026 12.84763681 29.41931334 13.42871094 31.31616211 C16.11135538 40.0906917 18.75613564 48.87653835 21.3828125 57.66796875 C21.59394684 58.37419373 21.80508118 59.0804187 22.02261353 59.80804443 C22.99943318 63.07839898 23.97069214 66.35016043 24.93408203 69.62451172 C25.27036621 70.76033691 25.60665039 71.89616211 25.953125 73.06640625 C26.24219727 74.05068604 26.53126953 75.03496582 26.82910156 76.04907227 C27.36360993 78.20021089 27.36360993 78.20021089 28.5625 79.25 C28.81670715 78.40332764 29.07091431 77.55665527 29.33282471 76.68432617 C31.73776736 68.67903248 34.14971878 60.67589109 36.5694313 52.67504883 C37.81298067 48.5623404 39.05387 44.44886945 40.28857422 40.33349609 C41.48174619 36.35691601 42.68204344 32.38254956 43.88716888 28.40957642 C44.34415243 26.89860662 44.79862704 25.38687551 45.25046539 23.87435913 C51.32354283 3.56029835 51.32354283 3.56029835 56.6875 -0.25 C61.16001353 -2.40450114 65.7146468 -2.53527209 70.5625 -1.75 C75.40108548 0.57968931 78.23281069 3.41141452 80.5625 8.25 C81.64868605 16.2164984 79.41319098 23.3745448 77.0390625 30.8984375 C76.46638141 32.7747943 75.89370069 34.65115122 75.32103443 36.52751255 C74.49921544 39.20707195 73.66429189 41.88248873 72.8300972 44.55821609 C71.74885875 48.03580085 70.68221357 51.51784946 69.61499023 54.99975586 C69.1775147 56.42651059 68.73999917 57.85325307 68.30244446 59.27998352 C68.0838357 59.99280298 67.86522694 60.70562244 67.63999367 61.4400425 C66.96850229 63.62680895 66.29499599 65.81294609 65.62101746 67.99894714 C62.70743187 77.45713364 59.85698171 86.9322516 57.05819702 96.42502594 C56.43931553 98.52356699 55.81902092 100.62168499 55.19824219 102.71966553 C54.79344697 104.08800972 54.38866172 105.45635686 53.98388672 106.82470703 C53.78650784 107.49194038 53.58912895 108.15917374 53.38576889 108.84662628 C52.41057903 112.14573175 51.43888899 115.44579867 50.47418213 118.74798584 C49.39950997 122.41940729 48.31241178 126.08693854 47.22265625 129.75390625 C46.90985214 130.83544479 46.59704803 131.91698334 46.27476501 133.03129578 C44.17512542 140.04178204 42.11242928 146.23552721 35.5625 150.25 C29.22352161 152.3629928 24.30784049 151.54483804 18.421875 148.80859375 C13.70176429 144.85203036 11.77221191 138.5334035 10.11157227 132.79394531 C9.89755768 132.08094049 9.68354309 131.36793566 9.46304321 130.63332462 C8.76006907 128.28396481 8.06950915 125.93114811 7.37890625 123.578125 C6.88213472 121.9096913 6.38455388 120.24149839 5.88621521 118.5735321 C4.56182135 114.13315649 3.2478985 109.68974969 1.9362793 105.2455864 C0.58482923 100.67191744 -0.7751138 96.10077719 -2.13476562 91.52954102 C-2.67626242 89.70870142 -3.21773588 87.88785488 -3.75918579 86.06700134 C-4.02564533 85.17092604 -4.29210487 84.27485073 -4.56663895 83.35162163 C-5.36923057 80.65080109 -6.17053091 77.94960036 -6.9715271 75.24830627 C-9.90431906 65.36297783 -12.87154186 55.4901309 -15.91015625 45.63671875 C-16.22472275 44.61359589 -16.53928925 43.59047302 -16.86338806 42.53634644 C-18.54794857 37.05977935 -18.54794857 37.05977935 -20.25192261 31.5892334 C-20.9887562 29.23774587 -21.71424586 26.88303594 -22.4375 24.52734375 C-23.0253125 22.64390259 -23.0253125 22.64390259 -23.625 20.72241211 C-25.09219116 14.45202153 -24.86118233 9.6265554 -21.75390625 4.05078125 C-16.5992896 -3.00048959 -7.44015612 -3.78771584 0 0 Z " fill="#000000" transform="translate(246.4375,300.75)"/>
<path d="M0 0 C4.004793 2.0023965 6.6587028 4.17998877 9 8 C10.72829044 13.18487132 10.69218324 17.33246766 8.625 22.3125 C6.56284188 25.54369846 3.99421395 28.21193735 1.375 31 C-11.09144471 44.43809408 -20.03930177 60.69734632 -25.375 78.1875 C-25.61379883 78.97020264 -25.85259766 79.75290527 -26.09863281 80.55932617 C-35.14492963 112.17881731 -30.53731614 146.74698382 -14.6875 175.375 C-9.55547208 184.28015578 -3.5350204 192.78003852 3.9375 199.875 C8.15700771 203.91537766 9.75419607 207.66486265 10.375 213.5625 C9.79289319 218.89847912 8.02172701 222.32100068 4 225.8125 C-0.43168511 229.04393706 -3.58701034 229.44368768 -9 229 C-23.3609208 225.1267226 -34.7623648 204.73030512 -41.92333984 192.59741211 C-55.60632075 168.54253084 -62.41381309 142.192354 -62.375 114.5625 C-62.37412384 113.86990082 -62.37324768 113.17730164 -62.37234497 112.4637146 C-62.20716372 72.55329628 -47.25979367 35.60261922 -19.7890625 6.63671875 C-13.37538449 0.57336769 -8.7083016 -1.29587821 0 0 Z " fill="#000000" transform="translate(162,0)"/>
<path d="M0 0 C0.92425781 -0.03738281 1.84851563 -0.07476563 2.80078125 -0.11328125 C12.58173534 1.32937639 20.13663879 12.85924685 25.78515625 20.3515625 C50.358231 53.88599013 61.43912656 95.5351227 55.43359375 136.9140625 C50.01738625 170.29248571 35.14661226 204.97470336 8.5546875 227.0859375 C4.6710377 229.63712168 1.21857766 229.68389981 -3.3125 229.3125 C-7.69941595 227.95386558 -11.22191712 226.05964331 -13.8125 222.1875 C-15.97046645 217.70779286 -16.0826405 213.16843852 -15.3125 208.3125 C-13.31107208 204.13560696 -10.23167118 201.13366459 -7.125 197.75 C14.49462698 174.00385233 25.9101206 142.46151668 24.90625 110.38671875 C23.48488803 80.55943774 12.79152297 52.63202735 -7.8828125 30.9140625 C-12.5002809 25.96995646 -15.52570807 22.0911522 -15.875 15.1875 C-15.58638976 9.66146282 -13.29153622 6.60818201 -9.75 2.5 C-6.82475363 0.08349213 -3.63306508 0.09547474 0 0 Z " fill="#000000" transform="translate(355.3125,-0.3125)"/>
<path d="M0 0 C9.22810016 8.4059977 14.0872763 20.17111681 15.21875 32.41015625 C15.66936993 46.25320041 11.3050049 58.93846028 1.87890625 69.16015625 C-9.21622707 79.58172329 -21.40019471 82.9600404 -36.20703125 82.72265625 C-48.54120673 81.72191179 -58.79826091 76.56349804 -67.05859375 67.41015625 C-67.53941406 66.93320313 -68.02023438 66.45625 -68.515625 65.96484375 C-77.53704199 56.50948518 -79.55609338 44.41445348 -79.33203125 31.87890625 C-78.76145057 18.61431782 -72.66969055 8.61699873 -63.30859375 -0.40234375 C-44.63949537 -16.43680458 -18.8887447 -14.58770227 0 0 Z M-45.49609375 25.97265625 C-48.45637754 30.59069897 -48.71682115 35.07120069 -48.05859375 40.41015625 C-45.35679912 45.71367905 -41.7636248 49.50847923 -36.05859375 51.41015625 C-29.92605954 51.92120077 -25.90146894 51.35574746 -21.05859375 47.41015625 C-17.58045221 43.47436451 -16.25470134 39.87154168 -15.8984375 34.71875 C-16.27744742 29.25546067 -18.77291562 25.57623642 -22.74609375 21.97265625 C-31.48318364 17.85138743 -38.77693067 18.90892071 -45.49609375 25.97265625 Z " fill="#000000" transform="translate(288.05859375,78.58984375)"/>
<path d="M0 0 C4.41070939 2.20535469 7.24755746 4.92230735 10 9 C10.93997592 11.93205194 11.12375728 14.58862203 11.12025452 17.65704346 C11.12162918 18.58809906 11.12300385 19.51915466 11.12442017 20.47842407 C11.12082489 21.49262421 11.11722961 22.50682434 11.11352539 23.55175781 C11.11367142 24.62523468 11.11381744 25.69871155 11.1139679 26.80471802 C11.11327103 30.35420754 11.10548914 33.90364464 11.09765625 37.453125 C11.09579127 39.91363496 11.09436774 42.3741453 11.09336853 44.83465576 C11.08954967 51.31194076 11.07972472 57.78920335 11.06866455 64.26647949 C11.0584369 70.87556658 11.053868 77.48465728 11.04882812 84.09375 C11.03810192 97.06250956 11.02122515 110.03125359 11 123 C11.82565964 122.98667633 11.82565964 122.98667633 12.66799927 122.9730835 C18.41072172 122.88440709 24.15324883 122.82418197 29.89648438 122.78027344 C32.03816634 122.76019112 34.1797937 122.73291963 36.32128906 122.69824219 C39.40443415 122.64957602 42.48685262 122.6269971 45.5703125 122.609375 C46.52366486 122.58872986 47.47701721 122.56808472 48.45925903 122.54681396 C54.31672746 122.5448487 57.50858418 123.15988848 62 127 C65.49716703 130.9795349 66.36526684 134.56053784 66.27734375 139.875 C65.6231049 144.88775961 63.25018443 148.03202717 59.32496643 151.07118225 C55.60401056 153.22971404 53.5980503 153.50109048 49.33959961 153.50170898 C48.03482162 153.51108994 46.73004364 153.52047089 45.38572693 153.53013611 C43.97459248 153.51965825 42.5634644 153.5082893 41.15234375 153.49609375 C39.69316028 153.49624887 38.2339764 153.49774008 36.77479553 153.50050354 C33.72427034 153.50188452 30.67421705 153.48937933 27.6237793 153.46655273 C23.72087097 153.43814314 19.8187446 153.44091601 15.91577816 153.45364285 C12.90537375 153.46060891 9.89514899 153.45280069 6.88476753 153.44038582 C5.44591524 153.43588207 4.0070436 153.43552509 2.56818962 153.43945122 C0.55576256 153.44237285 -1.45666051 153.42366266 -3.46899414 153.40405273 C-4.61227676 153.39864975 -5.75555939 153.39324677 -6.93348694 153.38768005 C-11.64277112 152.79231473 -14.16089909 150.9556427 -17.25 147.4375 C-19.80309681 143.88140087 -20.12808045 142.08901428 -20.14717102 137.75067139 C-20.15432632 136.63751053 -20.16148163 135.52434967 -20.16885376 134.37745667 C-20.17154266 133.15042526 -20.17423157 131.92339386 -20.17700195 130.65917969 C-20.18357315 129.37130051 -20.19014435 128.08342133 -20.19691467 126.7565155 C-20.21432998 123.21709399 -20.22487819 119.67768598 -20.2331202 116.13823223 C-20.23826999 113.92670902 -20.24434578 111.71518999 -20.25063133 109.50366974 C-20.26968622 102.58385747 -20.28391585 95.66405587 -20.2922433 88.7442224 C-20.30201325 80.75754578 -20.32832492 72.7711465 -20.36874419 64.78456759 C-20.39891397 58.61123379 -20.41371304 52.43797943 -20.41702431 46.26457334 C-20.41937413 42.57769298 -20.42832489 38.8911088 -20.45348549 35.20430756 C-20.48111717 31.08882731 -20.47693249 26.97396556 -20.4699707 22.85839844 C-20.48278076 21.63946396 -20.49559082 20.42052948 -20.50878906 19.16465759 C-20.46955379 12.81113242 -20.35651521 8.78528781 -16 4 C-11.0689115 -0.46146102 -6.38623612 -1.02970257 0 0 Z " fill="#000000" transform="translate(88,299)"/>
<path d="M0 0 C4.2820583 2.10851894 6.39985775 4.96092018 8.26953125 9.3046875 C9.63427193 13.63448976 9.4023167 17.01667933 7.92578125 21.26171875 C6.16950566 24.00589937 4.478687 25.93768292 2.23828125 28.26171875 C-9.00952845 40.58865411 -13.81135507 57.11185499 -13.421875 73.5546875 C-12.05343869 88.63823831 -6.40721148 101.2466456 3.93359375 112.14453125 C7.49271018 116.1502819 8.73496808 119.57399362 9.30078125 124.94921875 C8.71483556 130.32038756 6.96560339 133.2726236 3.30078125 137.19921875 C-0.49136068 140.10684122 -4.37741115 140.6343536 -9.07421875 140.38671875 C-20.0825737 137.63463001 -27.03740618 126.47155417 -32.77734375 117.359375 C-45.23142644 96.54633287 -48.17767793 70.69505973 -43.11328125 47.1953125 C-38.21307791 29.23404087 -28.92333804 11.9690318 -14.07421875 0.38671875 C-9.90102625 -1.6998775 -4.40186088 -1.30149182 0 0 Z " fill="#000000" transform="translate(197.07421875,44.61328125)"/>
<path d="M0 0 C12.95494384 4.62676566 20.80049235 21.42600521 26.5 33.0625 C36.5014252 55.44664211 36.14105694 81.30736917 27.74609375 104.08154297 C22.52188649 117.51473034 13.59085389 133.81724171 0.0625 140.4375 C-4.92761134 141.35405106 -9.06599034 140.79118577 -13.75 138.875 C-17.58378515 135.68017904 -19.62242389 132.41038489 -20.38671875 127.53125 C-20.69375677 120.50113812 -18.69111217 117.1720769 -14.1640625 111.8359375 C-2.42725096 97.67082012 3.24652367 81.59165947 1.66796875 63.11328125 C-0.25634885 48.94235547 -6.66683073 36.8372143 -16.1171875 26.234375 C-19.91551421 21.72681716 -20.44884026 18.26321107 -20.3125 12.46875 C-19.6802834 7.47423884 -16.97164099 4.87910375 -13.375 1.625 C-8.75974942 -0.59715769 -5.03173328 -0.74067114 0 0 Z " fill="#000000" transform="translate(326,44)"/>
<path d="M0 0 C4.61102324 2.2201223 8.04469572 5.21663682 10 10 C10.59508499 14.26352868 10.54628323 18.49584998 10.51757812 22.79492188 C10.5245874 24.08338516 10.53159668 25.37184845 10.53881836 26.69935608 C10.55700512 30.22217267 10.55000383 33.74451904 10.53730202 37.26734352 C10.52715004 40.96010192 10.53657378 44.65282101 10.54284668 48.34558105 C10.55011673 54.54605308 10.54055241 60.74633431 10.52148438 66.94677734 C10.49971669 74.10761604 10.50676852 81.26799914 10.52879 88.42882681 C10.54696247 94.58529344 10.54949335 100.7416232 10.53903532 106.89810801 C10.53281047 110.57146576 10.53193675 114.24460961 10.54518127 117.91795349 C10.55891899 122.01393461 10.53986018 126.10913464 10.51757812 130.20507812 C10.52567505 131.41772842 10.53377197 132.63037872 10.54211426 133.879776 C10.47815236 140.22339744 10.29450554 144.18920956 6 149 C5.484375 149.598125 4.96875 150.19625 4.4375 150.8125 C0.82205309 153.79917353 -3.83289138 153.32813655 -8.26953125 153.28125 C-12.11535443 152.88511371 -14.18370077 151.60507679 -17 149 C-20.37169223 144.34939002 -21.12223538 140.39859287 -21.14044189 134.74467468 C-21.14615204 133.68069458 -21.15186218 132.61671448 -21.15774536 131.52049255 C-21.15886322 130.35832718 -21.15998108 129.1961618 -21.16113281 127.9987793 C-21.16609772 126.77073578 -21.17106262 125.54269226 -21.17617798 124.2774353 C-21.18827556 120.91159113 -21.19574183 117.54580899 -21.20018864 114.17995048 C-21.20312352 112.07527955 -21.20722911 109.97061402 -21.21169281 107.86594582 C-21.22536084 101.27557358 -21.23503092 94.68521373 -21.2388947 88.09482831 C-21.24337406 80.49706202 -21.26091906 72.89947575 -21.2898953 65.30176419 C-21.31153752 59.42221355 -21.32160033 53.54271347 -21.32293582 47.66312343 C-21.32398202 44.15458898 -21.32985026 40.64622393 -21.34775543 37.13773155 C-21.36735304 33.22156385 -21.362937 29.30561981 -21.35644531 25.3894043 C-21.3656601 24.23331161 -21.37487488 23.07721893 -21.3843689 21.88609314 C-21.34943908 15.15973568 -21.1080802 9.52723606 -16.46484375 4.2578125 C-10.74526098 0.01566671 -7.08847954 -0.77428007 0 0 Z " fill="#000000" transform="translate(190,299)"/>
</svg>
