<?xml version="1.0" encoding="UTF-8"?>
<svg version="1.1" xmlns="http://www.w3.org/2000/svg" width="512" height="512">
<path d="M0 0 C5.4521357 2.53134872 6.4759981 4.71399714 10 10 C10 17.26 10 24.52 10 32 C52.24 32 94.48 32 138 32 C138 24.74 138 17.48 138 10 C143.17241379 2.24137931 143.17241379 2.24137931 148 0 C153.5997712 -0.75381535 158.33499991 -0.77303575 163.5 1.625 C166 4 166 4 170 10 C170 17.26 170 24.52 170 32 C212.24 32 254.48 32 298 32 C298 24.74 298 17.48 298 10 C303.17241379 2.24137931 303.17241379 2.24137931 308 0 C313.5997712 -0.75381535 318.33499991 -0.77303575 323.5 1.625 C327.06513686 5.01188002 329.69639119 7.58455122 330.3203125 12.54833984 C330.39313609 15.50022395 330.3490024 18.42396697 330.25 21.375 C330.23195313 22.39722656 330.21390625 23.41945313 330.1953125 24.47265625 C330.14839491 26.98274749 330.08276729 29.49087764 330 32 C330.75506836 31.97905273 331.51013672 31.95810547 332.28808594 31.93652344 C335.77525007 31.85235418 339.26219944 31.80102321 342.75 31.75 C343.93722656 31.71648438 345.12445313 31.68296875 346.34765625 31.6484375 C360.25227359 31.49647447 371.09447319 35.52517852 381.22265625 45.1015625 C391.83602031 56.32990654 394.3030646 67.76127127 394.26742554 82.74467468 C394.2711647 84.15284796 394.27576728 85.56101915 394.28115618 86.96918708 C394.293369 90.82956644 394.29312774 94.68985901 394.29076743 98.55025327 C394.29035882 102.71741972 394.30140266 106.88455852 394.31088257 111.05171204 C394.32748458 119.21296794 394.33299177 127.37419495 394.33410732 135.53546634 C394.33505827 142.17135666 394.33917087 148.80723746 394.34550858 155.44312477 C394.36311953 174.26641932 394.37234778 193.08969108 394.37084763 211.91299393 C394.37076772 212.92743591 394.3706878 213.9418779 394.37060547 214.98706055 C394.37052371 216.00274456 394.37044195 217.01842858 394.37035771 218.0648909 C394.36954506 234.52015481 394.38867783 250.97532712 394.4168822 267.43056455 C394.44562873 284.33583614 394.45942149 301.24106309 394.45769465 318.14635974 C394.45703132 327.63367602 394.46249872 337.1208963 394.48405075 346.60819054 C394.50228592 354.68705111 394.50659079 362.76577218 394.4930319 370.84464445 C394.48651376 374.96364438 394.48634304 379.08237688 394.5037384 383.20135117 C394.51952583 386.97857614 394.51654833 390.75532289 394.49917014 394.5325366 C394.49467389 396.5325234 394.50971302 398.53252536 394.52564943 400.53245372 C394.42093383 414.31865029 390.4050573 425.16825724 380.8984375 435.22265625 C372.18143056 443.46222995 361.92999393 448.24334524 349.83153248 448.25726891 C348.79659028 448.26252802 348.79659028 448.26252802 347.74074015 448.26789337 C345.43562466 448.27717528 343.1307636 448.27229244 340.82563782 448.26742554 C339.15347771 448.27116342 337.48131935 448.2757655 335.80916375 448.28115618 C331.21908752 448.29338461 326.62908419 448.29312589 322.03899539 448.29076743 C317.08654764 448.29035922 312.13412326 448.30139885 307.1816864 448.31088257 C297.48036926 448.32749302 287.77907642 448.33299215 278.07774625 448.33410732 C270.19090291 448.33505784 262.30406759 448.33916831 254.41722679 448.34550858 C232.05233119 448.36312163 209.68745477 448.37234742 187.32255218 448.37084763 C186.11694248 448.37076772 184.91133278 448.3706878 183.66918945 448.37060547 C182.46210609 448.37052371 181.25502273 448.37044195 180.01136108 448.37035771 C160.45217073 448.36954494 140.89305742 448.38868017 121.33388934 448.4168822 C101.24650386 448.44561708 81.15915594 448.45942214 61.07174939 448.45769465 C49.79591601 448.45703093 38.52016338 448.46251548 27.24434853 448.48405075 C17.64302615 448.50227052 8.0418211 448.50660335 -1.55951109 448.4930319 C-6.45619783 448.48650613 -11.35265952 448.48637099 -16.2493248 448.5037384 C-20.73708659 448.51949148 -25.2244453 448.51658268 -29.7121974 448.49917014 C-31.33063153 448.49610515 -32.94909591 448.49971365 -34.56749436 448.51089029 C-49.80397634 448.60909515 -61.87646825 445.62646763 -73.22265625 434.8984375 C-83.83602031 423.67009346 -86.3030646 412.23872873 -86.26742554 397.25532532 C-86.2711647 395.84715204 -86.27576728 394.43898085 -86.28115618 393.03081292 C-86.293369 389.17043356 -86.29312774 385.31014099 -86.29076743 381.44974673 C-86.29035882 377.28258028 -86.30140266 373.11544148 -86.31088257 368.94828796 C-86.32748458 360.78703206 -86.33299177 352.62580505 -86.33410732 344.46453366 C-86.33505827 337.82864334 -86.33917087 331.19276254 -86.34550858 324.55687523 C-86.36311953 305.73358068 -86.37234778 286.91030892 -86.37084763 268.08700607 C-86.37076772 267.07256409 -86.3706878 266.0581221 -86.37060547 265.01293945 C-86.37052371 263.99725544 -86.37044195 262.98157142 -86.37035771 261.9351091 C-86.36954506 245.47984519 -86.38867783 229.02467288 -86.4168822 212.56943545 C-86.44562873 195.66416386 -86.45942149 178.75893691 -86.45769465 161.85364026 C-86.45703132 152.36632398 -86.46249872 142.8791037 -86.48405075 133.39180946 C-86.50228592 125.31294889 -86.50659079 117.23422782 -86.4930319 109.15535555 C-86.48651376 105.03635562 -86.48634304 100.91762312 -86.5037384 96.79864883 C-86.51952583 93.02142386 -86.51654833 89.24467711 -86.49917014 85.4674634 C-86.49467389 83.4674766 -86.50971302 81.46747464 -86.52564943 79.46754628 C-86.42093383 65.68134971 -82.4050573 54.83174276 -72.8984375 44.77734375 C-61.57365636 34.07282447 -50.17465883 31.66896113 -35.0625 31.875 C-33.17821289 31.88853516 -33.17821289 31.88853516 -31.25585938 31.90234375 C-28.17037478 31.92580751 -25.08528795 31.95863799 -22 32 C-22.02094727 31.36497559 -22.04189453 30.72995117 -22.06347656 30.07568359 C-22.14704581 27.17561924 -22.19878774 24.27580884 -22.25 21.375 C-22.28351563 20.37597656 -22.31703125 19.37695312 -22.3515625 18.34765625 C-22.43315123 12.18770715 -22.1132688 8.68372214 -18 4 C-12.72867143 -1.00776214 -6.89190982 -0.92775709 0 0 Z M-50.375 69.25 C-57.84151044 81.88563306 -54 98.59239452 -54 112 C83.28 112 220.56 112 362 112 C364.39318465 90.0324769 364.39318465 90.0324769 356.6875 67.5625 C350.67076629 64.06439901 345.40139888 63.7345005 338.625 63.875 C337.37783203 63.88853516 337.37783203 63.88853516 336.10546875 63.90234375 C334.07018663 63.9257378 332.03505436 63.96160275 330 64 C329.98598145 64.95253662 329.98598145 64.95253662 329.97167969 65.92431641 C329.91771267 68.825308 329.83411873 71.72473244 329.75 74.625 C329.73582031 75.62402344 329.72164063 76.62304688 329.70703125 77.65234375 C329.51234004 83.5320184 329.14032476 87.47419673 325 92 C319.77740143 96.05630398 314.34659858 95.77397544 308 95 C302.93805921 92.60223857 301.97785351 90.96308918 299 86 C298.67 78.74 298.34 71.48 298 64 C255.76 64 213.52 64 170 64 C169.67 71.26 169.34 78.52 169 86 C164.24385102 93.13422347 164.24385102 93.13422347 160 95 C154.45191396 95.82885269 149.52859117 95.7240695 144.4375 93.3125 C135.35043028 84.69143386 138.65996003 78.51912073 138 64 C95.76 64 53.52 64 10 64 C9.67 71.26 9.34 78.52 9 86 C4.24385102 93.13422347 4.24385102 93.13422347 0 95 C-5.54808604 95.82885269 -10.47140883 95.7240695 -15.5625 93.3125 C-20.6670698 88.46970301 -21.37081672 84.58042915 -21.61914062 77.74023438 C-21.65297852 76.22913086 -21.65297852 76.22913086 -21.6875 74.6875 C-21.72166016 73.66076172 -21.75582031 72.63402344 -21.79101562 71.57617188 C-21.87323409 69.05089037 -21.94246936 66.5259446 -22 64 C-24.83392926 63.91825204 -27.66544819 63.85915015 -30.5 63.8125 C-31.68722656 63.77479492 -31.68722656 63.77479492 -32.8984375 63.73632812 C-39.5208585 63.65490492 -45.3759247 64.51403393 -50.375 69.25 Z M-54 144 C-54.061875 186.219375 -54.12375 228.43875 -54.1875 271.9375 C-54.21481201 285.272771 -54.24212402 298.60804199 -54.27026367 312.34741211 C-54.28029642 324.29175451 -54.28029642 324.29175451 -54.28633118 336.23609924 C-54.28912828 341.55991122 -54.30013066 346.88363162 -54.31672668 352.20741272 C-54.33786543 358.99849606 -54.34347354 365.78944754 -54.33921683 372.58056176 C-54.34010694 375.07272321 -54.34605617 377.56488922 -54.35764539 380.05702388 C-54.37258061 383.42517889 -54.36896514 386.79282872 -54.36076355 390.16099548 C-54.36950154 391.13447213 -54.37823954 392.10794878 -54.38724232 393.11092472 C-54.34127627 400.14083357 -53.68288589 407.09354029 -48.75 412.4375 C-43.41544691 415.46849607 -38.18429952 416.24997548 -32.11708927 416.25447559 C-31.45800852 416.25768207 -30.79892776 416.26088855 -30.11987486 416.26419219 C-27.91983828 416.27246826 -25.72007564 416.26657645 -23.52003479 416.26069641 C-21.92339539 416.26371818 -20.32675743 416.2676078 -18.73012203 416.27228898 C-14.34894833 416.28257427 -9.96785642 416.2803858 -5.586676 416.27610838 C-0.85925817 416.27364215 3.86813992 416.28265402 8.59555054 416.29014587 C17.85436529 416.30289746 27.11315104 416.30468602 36.37197309 416.30234561 C43.8970084 416.30056291 51.42203491 416.30231106 58.94706917 416.30657005 C60.55327905 416.30746284 60.55327905 416.30746284 62.19193761 416.30837366 C64.36724003 416.3095854 66.54254244 416.31079953 68.71784485 416.31201603 C89.1191292 416.32289321 109.52039702 416.32072815 129.92168231 416.31463119 C148.58794873 416.30946109 167.25416298 416.32071961 185.92041909 416.33972941 C205.08569459 416.35909785 224.25094539 416.3673656 243.41623074 416.36360615 C254.1766027 416.3616927 264.93693025 416.36419578 275.69729424 416.37832069 C284.85698328 416.39022274 294.01660056 416.39165254 303.17629056 416.37953053 C307.84966689 416.37363377 312.52291188 416.37256445 317.19627953 416.38453293 C321.4752977 416.39536417 325.75407444 416.39232132 330.03308118 416.37827124 C331.58011025 416.37561672 333.12715806 416.37801454 334.67416876 416.38600711 C347.49691644 416.73224686 347.49691644 416.73224686 358.375 410.75 C362.25380169 404.18587407 362.28470247 397.83090832 362.24050903 390.40150452 C362.24222107 389.34858719 362.24393311 388.29566986 362.24569702 387.21084595 C362.24900237 383.67833649 362.23796841 380.14601746 362.22705078 376.61352539 C362.22643803 374.03950983 362.22670524 371.46549394 362.2277813 368.89147854 C362.22884302 362.6977081 362.21962396 356.50399583 362.20677864 350.31024032 C362.19236091 343.14330807 362.19078817 335.97639605 362.18920898 328.80944824 C362.17871455 309.89378963 362.15079224 290.97814394 362.125 272.0625 C362.08375 229.801875 362.0425 187.54125 362 144 C224.72 144 87.44 144 -54 144 Z " fill="#000000" transform="translate(102,32)"/>
<path d="M0 0 C3.98709387 2.28779129 6.85423221 5.04870179 10.0668335 8.30210876 C10.7179863 8.9496109 11.3691391 9.59711304 12.0400238 10.26423645 C14.18043834 12.39657544 16.30984686 14.53953773 18.43890381 16.68321228 C19.92718248 18.17200982 21.41598012 19.66028873 22.90527344 21.14807129 C26.02002883 24.26291627 29.12956249 27.3828532 32.23529053 30.50669861 C36.21710814 34.51123221 40.20993506 38.50456747 44.20649338 42.49438381 C47.27976607 45.56431639 50.34803184 48.63921274 53.414711 51.71573067 C54.88539503 53.19026401 56.35743011 54.66345111 57.83083344 56.13526726 C59.8871379 58.19120111 61.93682613 60.25350806 63.98480225 62.31773376 C64.59468491 62.92513901 65.20456757 63.53254425 65.83293152 64.15835571 C66.39075821 64.72326721 66.9485849 65.28817871 67.52331543 65.87020874 C68.00775997 66.35670615 68.49220451 66.84320356 68.99132919 67.34444332 C72.00875379 70.96378149 72.58282794 74.09643053 72.64202881 78.74961853 C72.67038818 79.75766541 72.69874756 80.76571228 72.72796631 81.80430603 C71.73548838 88.41521836 66.42644711 93.01647803 61.88128662 97.5667572 C61.2498172 98.20655014 60.61834778 98.84634308 59.96774292 99.50552368 C57.89060947 101.60663945 55.80600016 103.70012301 53.72015381 105.79258728 C52.265226 107.25648826 50.81037282 108.72046341 49.35559082 110.18450928 C46.30959767 113.24696151 43.25926519 116.3050198 40.20648193 119.36070251 C36.30305695 123.269517 32.41605422 127.19423813 28.53282547 131.12310314 C25.53520741 134.1505116 22.5263509 137.16655751 19.51430511 140.17960548 C18.07654946 141.62155711 16.64290003 143.06761553 15.21353912 144.51788902 C13.21083403 146.54755541 11.19280195 148.56069962 9.17034912 150.57066345 C8.58824677 151.1676001 8.00614441 151.76453674 7.40640259 152.37956238 C2.83688512 156.86948826 -1.71870189 159.35377979 -8.20172119 160.19493103 C-14.66211135 159.57373967 -18.56425858 156.78556534 -22.73297119 151.87461853 C-25.30806052 147.13645416 -25.21997196 142.0022074 -23.73297119 136.87461853 C-21.09639229 132.568923 -18.17027964 129.06718782 -14.597229 125.51182556 C-13.8502047 124.76436317 -13.8502047 124.76436317 -13.08808899 124.00180054 C-11.45879203 122.3738847 -9.82255173 120.75314778 -8.18609619 119.13243103 C-7.04794318 117.99801248 -5.91023412 116.86314835 -4.77294922 115.7278595 C-1.7919268 112.75443939 1.19505448 109.78707716 4.18334961 106.82096863 C7.23702513 103.78782509 10.28498146 100.74894621 13.33343506 97.71055603 C19.30574112 91.7596398 25.28435946 85.815116 31.26702881 79.87461853 C29.69515589 76.06703584 27.30607597 73.69029738 24.39007568 70.81822205 C23.89556412 70.3282373 23.40105255 69.83825256 22.89155579 69.3334198 C21.82045297 68.2732503 20.74708305 67.21536743 19.67170715 66.15953255 C17.96883592 64.48688258 16.27277874 62.80759222 14.57843018 61.12631226 C9.76092628 56.34851419 4.93082173 51.5835268 0.09759521 46.82164001 C-2.86119122 43.90560532 -5.81260308 40.9822666 -8.7598114 38.054533 C-9.88283512 36.94206412 -11.00876338 35.8325193 -12.13764954 34.72599983 C-13.71731547 33.17758558 -15.28751168 31.62011567 -16.85601807 30.06040955 C-17.75155396 29.1775679 -18.64708984 28.29472626 -19.56976318 27.38513184 C-23.60506507 22.70195803 -24.19333238 18.37389597 -24.04156494 12.37461853 C-23.53022961 8.23215508 -22.32218399 6.19412212 -19.73297119 2.87461853 C-13.77632835 -1.77156288 -7.12097288 -2.93227055 0 0 Z " fill="#000000" transform="translate(295.73297119140625,241.12538146972656)"/>
<path d="M0 0 C1.37045026 -0.00542487 2.74089468 -0.01254958 4.11132812 -0.02124023 C7.82214736 -0.03943355 11.53252041 -0.0324229 15.24334717 -0.01972389 C19.13229549 -0.00957537 23.02120638 -0.0189947 26.91015625 -0.02526855 C33.44017372 -0.03253959 39.97001005 -0.02297163 46.5 -0.00390625 C54.04255185 0.01786159 61.58467116 0.01080982 69.12721252 -0.01121187 C75.61063837 -0.02938147 82.09393423 -0.03191662 88.57737732 -0.0214572 C92.44635098 -0.01523078 96.31512153 -0.01436299 100.18408203 -0.02760315 C103.82206402 -0.03918392 107.45949 -0.03109613 111.09741211 -0.00802612 C113.06428265 -0.00024035 115.03120039 -0.01207597 116.99804688 -0.02453613 C127.73721866 0.0783295 127.73721866 0.0783295 132.5625 4.51757812 C136.19083663 8.33687985 136.87250458 11.40036819 137.0625 16.51757812 C136.87250458 21.63478806 136.19083663 24.6982764 132.5625 28.51757812 C126.80959292 33.81024048 120.62887603 33.08269404 113.125 33.03515625 C111.75454974 33.04058112 110.38410532 33.04770583 109.01367188 33.05639648 C105.30285264 33.0745898 101.59247959 33.06757915 97.88165283 33.05488014 C93.99270451 33.04473162 90.10379362 33.05415095 86.21484375 33.0604248 C79.68482628 33.06769584 73.15498995 33.05812788 66.625 33.0390625 C59.08244815 33.01729466 51.54032884 33.02434643 43.99778748 33.04636812 C37.51436163 33.06453772 31.03106577 33.06707287 24.54762268 33.05661345 C20.67864902 33.05038703 16.80987847 33.04951924 12.94091797 33.0627594 C9.30293598 33.07434017 5.66551 33.06625238 2.02758789 33.04318237 C0.06071735 33.0353966 -1.90620039 33.04723222 -3.87304688 33.05969238 C-14.61221866 32.95682675 -14.61221866 32.95682675 -19.4375 28.51757812 C-23.06583663 24.6982764 -23.74750458 21.63478806 -23.9375 16.51757812 C-23.74750458 11.40036819 -23.06583663 8.33687985 -19.4375 4.51757812 C-13.68459292 -0.77508423 -7.50387603 -0.04753779 0 0 Z " fill="#000000" transform="translate(167.4375,303.482421875)"/>
</svg>
