<svg xmlns="http://www.w3.org/2000/svg" xmlns:xlink="http://www.w3.org/1999/xlink" viewBox="0 0 991.92 218.48"><defs><style>.cls-1{isolation:isolate;}.cls-2{mix-blend-mode:saturation;}.cls-10,.cls-11,.cls-12,.cls-13,.cls-14,.cls-15,.cls-16,.cls-17,.cls-18,.cls-19,.cls-20,.cls-21,.cls-22,.cls-23,.cls-24,.cls-25,.cls-3,.cls-4,.cls-5,.cls-6,.cls-7,.cls-8,.cls-9{fill:none;stroke-miterlimit:10;}.cls-3{stroke:url(#linear-gradient);}.cls-4{stroke:url(#linear-gradient-2);}.cls-5{stroke:url(#linear-gradient-3);}.cls-6{stroke:url(#linear-gradient-4);}.cls-7{stroke:url(#linear-gradient-5);}.cls-8{stroke:url(#linear-gradient-6);}.cls-9{stroke:url(#linear-gradient-7);}.cls-10{stroke:url(#linear-gradient-8);}.cls-11{stroke:url(#linear-gradient-9);}.cls-12{stroke:url(#linear-gradient-10);}.cls-13{stroke:url(#linear-gradient-11);}.cls-14{stroke:url(#linear-gradient-12);}.cls-15{stroke:url(#linear-gradient-13);}.cls-16{stroke:url(#linear-gradient-14);}.cls-17{stroke:url(#linear-gradient-15);}.cls-18{stroke:url(#linear-gradient-16);}.cls-19{stroke:url(#linear-gradient-17);}.cls-20{stroke:url(#linear-gradient-18);}.cls-21{stroke:url(#linear-gradient-19);}.cls-22{stroke:url(#linear-gradient-20);}.cls-23{stroke:url(#linear-gradient-21);}.cls-24{stroke:url(#linear-gradient-22);}.cls-25{stroke:url(#linear-gradient-23);}</style><linearGradient id="linear-gradient" x1="78" y1="127.13" x2="1069.92" y2="127.13" gradientUnits="userSpaceOnUse"><stop offset="0" stop-color="#0e3779"/><stop offset="1" stop-color="#0e3779"/></linearGradient><linearGradient id="linear-gradient-2" x1="78" y1="124.86" x2="1069.92" y2="124.86" xlink:href="#linear-gradient"/><linearGradient id="linear-gradient-3" x1="78" y1="122.36" x2="1069.92" y2="122.36" xlink:href="#linear-gradient"/><linearGradient id="linear-gradient-4" x1="78" y1="123.8" x2="1069.91" y2="123.8" xlink:href="#linear-gradient"/><linearGradient id="linear-gradient-5" x1="78" y1="125.66" x2="1069.91" y2="125.66" xlink:href="#linear-gradient"/><linearGradient id="linear-gradient-6" x1="78" y1="127.44" x2="1069.9" y2="127.44" xlink:href="#linear-gradient"/><linearGradient id="linear-gradient-7" x1="78" y1="129.17" x2="1069.9" y2="129.17" xlink:href="#linear-gradient"/><linearGradient id="linear-gradient-8" x1="78" y1="130.87" x2="1069.9" y2="130.87" xlink:href="#linear-gradient"/><linearGradient id="linear-gradient-9" x1="78" y1="132.55" x2="1069.89" y2="132.55" xlink:href="#linear-gradient"/><linearGradient id="linear-gradient-10" x1="78" y1="134.21" x2="1069.89" y2="134.21" xlink:href="#linear-gradient"/><linearGradient id="linear-gradient-11" x1="78" y1="135.84" x2="1069.89" y2="135.84" xlink:href="#linear-gradient"/><linearGradient id="linear-gradient-12" x1="78" y1="137.45" x2="1069.88" y2="137.45" xlink:href="#linear-gradient"/><linearGradient id="linear-gradient-13" x1="78" y1="139" x2="1069.88" y2="139" xlink:href="#linear-gradient"/><linearGradient id="linear-gradient-14" x1="78" y1="137.41" x2="1069.88" y2="137.41" xlink:href="#linear-gradient"/><linearGradient id="linear-gradient-15" x1="78" y1="135.41" x2="1069.88" y2="135.41" xlink:href="#linear-gradient"/><linearGradient id="linear-gradient-16" x1="78" y1="133.02" x2="1069.87" y2="133.02" xlink:href="#linear-gradient"/><linearGradient id="linear-gradient-17" x1="78" y1="130.27" x2="1069.87" y2="130.27" xlink:href="#linear-gradient"/><linearGradient id="linear-gradient-18" x1="78" y1="126.94" x2="1069.87" y2="126.94" xlink:href="#linear-gradient"/><linearGradient id="linear-gradient-19" x1="78" y1="123.15" x2="1069.87" y2="123.15" xlink:href="#linear-gradient"/><linearGradient id="linear-gradient-20" x1="78" y1="119.09" x2="1069.87" y2="119.09" xlink:href="#linear-gradient"/><linearGradient id="linear-gradient-21" x1="78" y1="114.88" x2="1069.87" y2="114.88" xlink:href="#linear-gradient"/><linearGradient id="linear-gradient-22" x1="78" y1="113.09" x2="1069.86" y2="113.09" xlink:href="#linear-gradient"/><linearGradient id="linear-gradient-23" x1="78.06" y1="112.25" x2="1069.86" y2="112.25" xlink:href="#linear-gradient"/></defs><g class="cls-1"><g id="Layer_1" data-name="Layer 1"><g class="cls-2"><path class="cls-3" d="M1069.48,175.64s-146-273.45-287-27.34C653.79,373,547.32,31.27,349.5,29.5c-164.86-1.48-258,40-271,176" transform="translate(-78 -6.82)"/><path class="cls-4" d="M1069.49,175.64s-29.8-52-72.8-84.76C940.3,48.05,856.8,11.69,776.38,142.5,682.86,294.61,605.53,174,492.67,94.22c-43.92-31.06-91-57.5-144.57-59.36-30.07-1.09-57.77-.75-83.44,2C152.14,48.49,88.59,100,78.5,205.5" transform="translate(-78 -6.82)"/><path class="cls-5" d="M1069.49,175.64s-32.23-52.8-75.76-80.13C936.58,59.85,851.15,14.65,770.26,136.7c-94.08,141.92-167.53,34-280.55-38.51-44.61-28.6-90.87-54.75-143-58-29.33-1.91-56.4-2.39-82-.07C151.68,50.39,88.11,105,78.5,205.5" transform="translate(-78 -6.82)"/><path class="cls-6" d="M1069.49,175.64s-34.61-53.67-78.73-75.5C932.93,71.51,845.51,17.6,764.14,130.9c-94.64,131.73-164.37,36.42-277.39-28.73C441.39,76,396,50.3,345.3,45.58c-28.6-2.66-55-4.07-80.56-2.12C151.21,52.16,87.63,110,78.5,205.5" transform="translate(-78 -6.82)"/><path class="cls-7" d="M1069.49,175.64s-37-54.48-81.69-70.87C929.22,83.26,839.86,20.56,758,125.1c-95.2,121.54-161.38,38.94-274.23-19C437.6,82.45,393.21,57.06,343.9,50.94c-27.86-3.45-53.68-5.75-79.12-4.16C150.73,53.91,87.15,115,78.5,205.5" transform="translate(-78 -6.82)"/><path class="cls-8" d="M1069.5,175.64s-39.49-55.3-84.67-66.24C925.49,95,834.21,23.52,751.9,119.3c-95.76,111.35-158.55,41.56-271.07-9.18C433.76,88.89,390.4,63.82,342.5,56.3c-27.12-4.25-52.32-7.43-77.68-6.2C150.25,55.65,86.67,120.05,78.5,205.5" transform="translate(-78 -6.82)"/><path class="cls-9" d="M1069.5,175.64s-41.94-56.1-87.63-61.61c-60.12-7.26-153.3-87.55-236.09-.53-96.32,101.15-155.88,44.29-267.91.59-48-18.73-90.29-43.52-136.77-52.43-26.39-5-51-9.11-76.24-8.24-115.1,4-178.67,71.66-186.36,152.08" transform="translate(-78 -6.82)"/><path class="cls-10" d="M1069.5,175.64s-44.39-56.9-90.59-57c-60.9-.12-156-89.22-239.24-11-96.89,91-153.37,47.16-264.76,10.37-49-16.2-90.15-40.75-135.22-51-25.64-5.85-49.59-10.8-74.79-10.29C149.28,59.1,85.71,130.11,78.5,205.5" transform="translate(-78 -6.82)"/><path class="cls-11" d="M1069.5,175.64s-46.85-57.68-93.56-52.35c-61.68,7-158.66-90.89-242.39-21.39C636.1,182.67,582.56,152.09,472,122c-50.12-13.61-90-38-133.66-49.66-24.91-6.66-48.23-12.49-73.35-12.33C148.79,60.8,85.23,135.13,78.5,205.5" transform="translate(-78 -6.82)"/><path class="cls-12" d="M1069.51,175.64S1020.2,117.18,973,127.91C910.51,142.12,811.63,35.36,727.43,96.1,629.42,166.68,578.72,149.5,469,126c-51.24-11-89.87-35.22-132.1-48.28C312.72,70.27,290,63.56,265,63.37,148.3,62.5,84.75,140.16,78.5,205.5" transform="translate(-78 -6.82)"/><path class="cls-13" d="M1069.51,175.64s-51.77-59.23-99.5-43.1c-63.24,21.38-164-94.22-248.7-42.24C622.74,150.69,574.8,147.09,466,130c-52.39-8.23-89.73-32.46-130.54-46.89C312.05,74.82,290,67.22,265,66.69,147.81,64.18,84.27,145.18,78.5,205.5" transform="translate(-78 -6.82)"/><path class="cls-14" d="M1069.51,175.64s-54.21-60-102.46-38.47C903,165.74,800.34,41.28,715.19,84.5,616.06,134.7,570.83,144.87,463.06,134c-53.56-5.42-89.57-29.71-129-45.51-22.71-9.1-44.16-17.58-69-18.45C147.32,65.85,83.78,150.21,78.5,205.5" transform="translate(-78 -6.82)"/><path class="cls-15" d="M1069.51,175.64s-56.65-60.75-105.43-33.84c-64.77,35.76-169.38-97.56-255-63.1-99.7,40-142.23,64.14-249,59.24-54.75-2.51-89.43-27-127.41-44.11-22-9.93-42.8-19.29-67.59-20.51C146.83,67.5,83.3,155.24,78.5,205.5" transform="translate(-78 -6.82)"/><path class="cls-16" d="M1069.52,175.64s-59.1-61.51-108.4-29.21C895.59,189.38,789.05,47.2,703,72.9c-100.26,29.81-140.08,68.09-245.81,69-55.93.49-89.29-24.23-125.85-42.73-21.24-10.75-41.44-21-66.15-22.55C146.34,69.15,82.82,160.26,78.5,205.5" transform="translate(-78 -6.82)"/><path class="cls-17" d="M1069.52,175.64S1008,113.37,958.16,151.06c-66.29,50.14-174.76-100.9-261.33-84C596,86.72,558.94,139.3,454.18,145.9c-57.09,3.59-89.14-21.5-124.29-41.35C309.39,93,289.81,81.85,265.18,80,145.85,70.78,82.34,165.29,78.5,205.5" transform="translate(-78 -6.82)"/><path class="cls-18" d="M1069.52,175.64s-63.95-63-114.33-19.95C888.16,213,777.76,53.12,690.71,61.3c-101.38,9.43-135.64,76.46-239.49,88.57-58.21,6.79-89-18.77-122.73-40-19.76-12.41-38.72-24.4-63.27-26.63C145.37,72.39,81.86,170.32,78.5,205.5" transform="translate(-78 -6.82)"/><path class="cls-19" d="M1069.52,175.64s-66.29-63.7-117.29-15.32C884.57,225,772.11,56.08,684.59,55.5c-101.94-.76-133.29,80.83-236.33,98.35-59.29,10.07-88.83-16.06-121.17-38.58-19-13.24-37.36-26.12-61.83-28.68C144.89,74,81.38,175.34,78.5,205.5" transform="translate(-78 -6.82)"/><path class="cls-20" d="M1069.53,175.64S1000.8,111.16,949.26,165C880.86,236.75,766.47,59,678.47,49.7,576,38.75,547.63,135,445.3,157.82c-60.31,13.45-88.66-13.34-119.61-37.19-18.27-14.08-36-27.83-60.39-30.72C144.41,75.59,80.9,180.37,78.5,205.5" transform="translate(-78 -6.82)"/><path class="cls-21" d="M1069.53,175.64s-71.16-65.26-123.23-6.06C877.14,248.55,760.82,62,672.35,43.9c-103.06-21.14-128.27,89.86-230,117.9-61.26,16.88-88.49-10.63-118-35.81-17.52-14.92-34.64-29.54-59-32.76C143.93,77.17,80.42,185.39,78.5,205.5" transform="translate(-78 -6.82)"/><path class="cls-22" d="M1069.53,175.64s-73.59-66-126.19-1.43C873.43,260.34,755.18,65,666.23,38.11,562.61,6.76,540.66,132.56,439.38,165.77c-62.15,20.38-88.31-7.92-116.49-34.42-16.76-15.76-33.28-31.26-57.51-34.8C143.46,78.73,79.94,190.42,78.5,205.5" transform="translate(-78 -6.82)"/><path class="cls-23" d="M1069.54,175.64s-76-66.81-129.17,3.2C869.71,272.14,749.53,67.92,660.12,32.31,555.93-9.23,537.36,131.4,436.42,169.75c-63,23.92-88.13-5.21-114.94-33-16-16.6-31.9-33-56.06-36.85C143,80.29,79.46,195.45,78.5,205.5" transform="translate(-78 -6.82)"/><path class="cls-24" d="M1069.54,175.64s-78.47-67.59-132.13,7.83C866,283.93,743.88,70.88,654,26.51,549.25-25.22,534.18,130.25,433.46,173.72c-63.7,27.5-87.88-2.54-113.38-31.65-15.2-17.47-30.54-34.73-54.62-38.89C142.56,81.7,79,200.47,78.5,205.5" transform="translate(-78 -6.82)"/><path class="cls-25" d="M1069.54,175.64s-80.9-68.37-135.1,12.46C862.28,295.72,738.24,73.83,647.88,20.71,542.57-41.21,531.12,129.1,430.5,177.7c-103,49.75-101-59.2-165-71.2-123.42-23.14-187,99-187,99" transform="translate(-78 -6.82)"/></g></g></g></svg>