<?xml version="1.0" encoding="utf-8"?>
<!-- Generator: Adobe Illustrator 26.0.1, SVG Export Plug-In . SVG Version: 6.00 Build 0)  -->
<svg version="1.1" id="Layer_1" xmlns="http://www.w3.org/2000/svg" xmlns:xlink="http://www.w3.org/1999/xlink" x="0px" y="0px"
	 viewBox="0 0 120 120" style="enable-background:new 0 0 120 120;" xml:space="preserve">
<style type="text/css">
	.st0{fill:#FFFFFF;}
</style>
<path class="st0" d="M57.1,40.5c4.4,0,8.9,0,13.3,0c0,0.4,0,0.7,0,1.1c-0.1,0-0.3,0-0.4,0c-0.7,0-1.4,0-2.1,0.1c-0.7,0-1,0.3-1,1
	c0,0.8,0,1.7,0,2.5c0,2,0,4.1,0,6.2c0,0.7,0.1,1.3,0.3,2c1.2,3.7,2.4,7.5,3.6,11.3c1,3.1,2,6.3,3,9.4c0,0.1,0,0.2,0.1,0.2
	c0.1,0.1,0.1,0.2,0.2,0.2s0.2-0.1,0.2-0.2c0.1-0.1,0.1-0.2,0.1-0.3c1.1-3.8,2.2-7.7,3.3-11.5c0.8-2.8,1.7-5.8,2.5-8.6
	c0.7-2.3,1.4-4.6,2.1-6.9c0.4-1.4,0.9-2.8,1.3-4.3c0.1-0.2,0.1-0.4-0.1-0.6c-3.1-3.3-6.8-5.7-11.1-7.1c-1.7-0.6-3.5-1-5.4-1.2
	c-2.3-0.3-4.6-0.3-7-0.1c-6.8,0.8-12.5,3.5-17.2,8.5c-2.5,2.7-4.3,6-5.6,9.5c-1,3.1-1.3,6.4-1.2,9.6c0.1,3.3,0.8,6.6,2.1,9.7
	c0.3,0.6,0.6,1.1,0.9,1.7c3.4-10.7,7-21.4,10.4-32.2c0.1,0,0.3,0,0.4,0c1.8,0,3.7,0,5.6,0c0.3,0,0.5,0.1,0.6,0.4
	c1.1,3.3,2.2,6.6,3.3,9.9c1.3,3.7,2.5,7.5,3.7,11.2c1.6,4.7,3.2,9.6,4.8,14.3c0.5,1.4,0.9,2.8,1.4,4.2c0.1,0.2,0.1,0.3,0.1,0.6
	c-4.4,0-8.9,0-13.3,0c0-0.3,0-0.7,0-1.1c0.1,0,0.3,0,0.4,0c0.7,0,1.5,0,2.2-0.1c0.6,0,0.9-0.3,0.9-0.9c0-0.5,0.1-1,0.1-1.6
	c0-2.4,0-4.7,0-7.2c0-0.6-0.1-1.3-0.3-1.9c-1.4-4.4-2.8-9-4.2-13.4c-0.8-2.4-1.6-4.9-2.3-7.4c0,0,0-0.1-0.1-0.1
	c-0.1-0.1-0.2-0.2-0.3-0.3c-0.1,0.1-0.2,0.2-0.3,0.4c-1.1,3.8-2.3,7.7-3.4,11.6c-1.9,6.4-3.7,12.6-5.7,19c-0.1,0.3-0.1,0.5,0.2,0.8
	c3.7,3.7,8.3,6.2,13.4,7.2c2.6,0.5,5.3,0.7,7.9,0.6c3.7-0.2,7.4-1,10.8-2.7c0.1-0.1,0.3-0.1,0.5-0.2c-0.2,0.6-0.4,1.2-0.5,1.7
	c-0.6,1.7-1.1,3.5-1.7,5.3c-0.1,0.3-0.2,0.4-0.5,0.5c-1.9,0.5-3.7,0.9-5.7,1.1c-2.3,0.3-4.6,0.3-6.9,0.2c-6.3-0.2-12.1-1.8-17.5-5.4
	c-2.3-1.5-4.3-3.4-6.2-5.6c-3.2-3.7-5.5-8-6.7-12.7c-0.6-2.2-0.9-4.4-1-6.8c-0.1-1.2-0.1-2.4-0.1-3.7c0.1-2.5,0.4-5.1,1.1-7.5
	c1.5-5.8,4.6-10.5,8.9-14.5c3.6-3.4,7.8-5.9,12.5-7.3c2.3-0.7,4.6-1.2,7.1-1.3c1.8-0.1,3.7-0.2,5.6-0.1c7.8,0.3,14.7,2.7,20.6,7.8
	c1.7,1.5,3.2,3.1,4.6,4.9C90,40.7,90,40.8,90,41c-0.4,1.1-0.8,2.3-1.1,3.4c-1.2,3.6-2.3,7.3-3.5,11C83.2,62,81.1,68.6,79,75.1
	c-0.6,1.9-1.3,3.8-1.9,5.9c-0.1,0.3-0.2,0.4-0.5,0.4c-1.9,0-3.8,0-5.8,0c-0.3,0-0.4-0.1-0.5-0.4c-1.4-4.1-2.8-8.4-4.2-12.5
	c-1.3-3.8-2.6-7.8-3.9-11.6c-1.1-3.1-2.1-6.4-3.2-9.5c-0.7-2.1-1.4-4.2-2.1-6.3C57.2,40.7,57.1,40.6,57.1,40.5z"/>
</svg>
