<?xml version="1.0" encoding="utf-8"?>
<!-- Generator: Adobe Illustrator 26.0.1, SVG Export Plug-In . SVG Version: 6.00 Build 0)  -->
<svg version="1.1" id="Layer_1" xmlns="http://www.w3.org/2000/svg" xmlns:xlink="http://www.w3.org/1999/xlink" x="0px" y="0px"
	 viewBox="0 0 120 120" style="enable-background:new 0 0 120 120;" xml:space="preserve">
<style type="text/css">
	.st0{fill:#FFFFFF;}
</style>
<path class="st0" d="M65.5,44.8h2.4v-1.5H56.3L68,79.1h5.5L84,43c-5.2-6.5-13.3-10.5-22.2-10.5c-15.7,0-27.7,12.1-27.7,27.7
	s12.7,28.3,28.3,28.3c3.1,0,6-0.5,8.8-1.4l0.1-0.3l1.3-4.6c-2,0.7-16.4,5.2-27.1-5.6c-0.2-0.1-0.2-0.3-0.2-0.4
	c0.8-2.7,6.5-22.3,7.2-25l0.5-1.6c0.7,2.1,5.1,16.5,5.7,18.1l0.1,0.2c0.1,0.5,0.2,0.8,0.2,1.3c0,0,0.1,7.2,0,7.7
	c0,0.4-0.2,0.5-0.6,0.5c-0.6,0-2.4,0-2.4,0V79h11.7L55.8,43.3h-5.7l0,0c-2.8,9-5.8,18.3-8.6,27.5c-0.1-0.2-0.2-0.4-0.3-0.6
	c-0.1-0.1-0.1-0.2-0.2-0.3c-1.1-2.6-1.7-5.4-1.8-8.4c-0.1-2.8,0.2-5.5,1-8.3c0.9-3,2.5-5.9,4.7-8.3c3.9-4.3,8.7-6.7,14.4-7.4
	c0.8-0.1,1.8-0.2,2.6-0.2c1.1,0,2.2,0.1,3.2,0.3c1.1,0.2,2.8,0.5,4.5,1c3.6,1.2,6.7,3.2,9.3,6.2c0.1,0,0.1,0.2,0.1,0.3
	c-0.2,0.6-0.4,1.2-0.6,1.9c-0.2,0.6-1.1,3.9-1.4,5c-0.3,1-5.5,19-5.9,20.7h-0.1v0.1c-0.1-0.1-0.1-0.1-0.1-0.2
	c-0.4-1.4-0.8-2.7-1.2-4c-0.5-1.4-3.8-12.3-4.4-14c-0.2-0.5-0.2-1-0.2-1.6v-7.6C64.9,44.9,65.1,44.8,65.5,44.8z"/>
</svg>
